STARTFONT 2.1
COMMENT
COMMENT Converted from OpenType font "..\ttf\ITC Avant Garde Gothic CE Book.otf" by "otf2bdf 3.0".
COMMENT
FONT -FreeType-AvantGarde CE-Medium-R-Normal--39-280-100-100-P-180-ISO10646-1
SIZE 28 100 100
FONTBOUNDINGBOX 47 46 -3 -9
STARTPROPERTIES 19
FOUNDRY "FreeType"
FAMILY_NAME "AvantGarde CE"
WEIGHT_NAME "Medium"
SLANT "R"
SETWIDTH_NAME "Normal"
ADD_STYLE_NAME ""
PIXEL_SIZE 39
POINT_SIZE 280
RESOLUTION_X 100
RESOLUTION_Y 100
SPACING "P"
AVERAGE_WIDTH 180
CHARSET_REGISTRY "ISO10646"
CHARSET_ENCODING "1"
FONT_ASCENT 28
FONT_DESCENT 7
COPYRIGHT "Copyright (c) 1985, 1987, 1989, 1990, 1991, 1992, 1997 Adobe Systems Incorporated.  All Rights Reserved.ITC Avant Garde Gothic is a registered trademark of International Typeface Corporation."
_OTF_FONTFILE "..\ttf\ITC Avant Garde Gothic CE Book.otf"
_OTF_PSNAME "AvantGardeCE-Book"
ENDPROPERTIES
CHARS 260
STARTCHAR 0020
ENCODING 32
SWIDTH 282 0
DWIDTH 11 0
BBX 0 0 0 0
BITMAP
ENDCHAR
STARTCHAR 0021
ENCODING 33
SWIDTH 282 0
DWIDTH 11 0
BBX 3 28 4 0
BITMAP
E0
E0
E0
E0
E0
E0
E0
E0
E0
E0
E0
E0
E0
E0
E0
E0
E0
E0
E0
E0
E0
00
00
E0
E0
E0
E0
E0
ENDCHAR
STARTCHAR 0022
ENCODING 34
SWIDTH 308 0
DWIDTH 12 0
BBX 8 11 2 16
BITMAP
E7
E7
E7
E7
E7
E7
E7
E7
E7
E7
E7
ENDCHAR
STARTCHAR 0023
ENCODING 35
SWIDTH 565 0
DWIDTH 22 0
BBX 19 28 1 0
BITMAP
018380
038380
038380
038300
038300
038700
030700
030700
7FFFE0
7FFFE0
070600
070E00
070E00
060E00
060E00
0E0E00
0E0E00
0E0C00
FFFFC0
FFFFC0
0C1C00
0C1C00
1C1C00
1C1C00
1C1800
1C1800
1C3800
183800
ENDCHAR
STARTCHAR 0024
ENCODING 36
SWIDTH 565 0
DWIDTH 22 0
BBX 16 35 3 -3
BITMAP
0380
0380
0380
03C0
0FF8
1FFC
3C3E
380E
700F
7007
7007
7000
7000
7800
3C00
1F80
0FF0
03F8
007C
001E
000E
0007
0007
E007
E007
E007
F00E
700E
3C3C
3FF8
0FF0
0380
0380
0380
0380
ENDCHAR
STARTCHAR 0025
ENCODING 37
SWIDTH 771 0
DWIDTH 30 0
BBX 28 28 1 0
BITMAP
0FC00E00
1FF00C00
38781C00
70381800
E01C3000
E01C3000
E01C6000
E01CE000
E01CC000
7039C000
38798000
1FE30000
0FC30000
00060000
000E0000
000C3F00
001CFFC0
0019E1E0
0039C0E0
00338070
00638070
00E38070
00C38070
01C38070
0181C0E0
0380E1C0
03007F80
06003F00
ENDCHAR
STARTCHAR 0026
ENCODING 38
SWIDTH 745 0
DWIDTH 29 0
BBX 26 28 2 0
BITMAP
01F80000
03FE0000
07FF0000
0E070000
1C038000
1C038000
1C038000
1C038000
0E078000
0F0F0000
07FE0700
03F80E00
07E00E00
1F781C00
3C3C3C00
781E3800
700F7000
E007F000
E003E000
E001E000
E001F000
E001F800
7003BC00
78079E00
3C0F0F00
1FFE0780
0FFC03C0
03F00180
ENDCHAR
STARTCHAR 0027
ENCODING 39
SWIDTH 205 0
DWIDTH 8 0
BBX 3 11 2 16
BITMAP
E0
E0
E0
E0
E0
E0
E0
E0
E0
E0
E0
ENDCHAR
STARTCHAR 0028
ENCODING 40
SWIDTH 360 0
DWIDTH 14 0
BBX 12 35 2 -7
BITMAP
0010
0070
01F0
03E0
0780
0F00
0E00
1C00
3C00
3800
7800
7000
7000
E000
E000
E000
E000
E000
E000
E000
E000
E000
7000
7000
7800
3800
3C00
1C00
0E00
0F00
0780
03C0
01F0
0070
0030
ENDCHAR
STARTCHAR 0029
ENCODING 41
SWIDTH 360 0
DWIDTH 14 0
BBX 12 37 0 -7
BITMAP
8000
E000
F800
7C00
3E00
0E00
0F00
0780
0380
01C0
01C0
00E0
00E0
00E0
0070
0070
0070
0070
0070
0070
0070
0070
0070
00E0
00E0
00E0
01C0
01C0
0380
0780
0700
0E00
1E00
7C00
F800
E000
8000
ENDCHAR
STARTCHAR 002A
ENCODING 42
SWIDTH 437 0
DWIDTH 17 0
BBX 12 11 2 16
BITMAP
0700
0700
0700
4710
FFF0
7FE0
0F00
0F80
1DC0
38E0
3040
ENDCHAR
STARTCHAR 002B
ENCODING 43
SWIDTH 617 0
DWIDTH 24 0
BBX 19 19 2 0
BITMAP
00E000
00E000
00E000
00E000
00E000
00E000
00E000
00E000
00E000
FFFFE0
FFFFE0
00E000
00E000
00E000
00E000
00E000
00E000
00E000
00E000
ENDCHAR
STARTCHAR 002C
ENCODING 44
SWIDTH 282 0
DWIDTH 11 0
BBX 6 7 1 -3
BITMAP
1C
18
38
30
70
60
E0
ENDCHAR
STARTCHAR 002D
ENCODING 45
SWIDTH 334 0
DWIDTH 13 0
BBX 10 2 1 9
BITMAP
FFC0
FFC0
ENDCHAR
STARTCHAR 002E
ENCODING 46
SWIDTH 282 0
DWIDTH 11 0
BBX 3 5 4 0
BITMAP
E0
E0
E0
E0
E0
ENDCHAR
STARTCHAR 002F
ENCODING 47
SWIDTH 437 0
DWIDTH 17 0
BBX 14 32 2 -5
BITMAP
001C
0038
0038
0038
0070
0070
0070
00E0
00E0
00E0
01C0
01C0
01C0
0380
0380
0380
0700
0700
0700
0E00
0E00
0E00
1C00
1C00
1C00
3800
3800
3800
7000
7000
7000
E000
ENDCHAR
STARTCHAR 0030
ENCODING 48
SWIDTH 565 0
DWIDTH 22 0
BBX 19 28 1 0
BITMAP
01F800
0FFE00
1FFF00
3C0780
7803C0
7001C0
7000E0
E000E0
E000E0
E000E0
E000E0
E000E0
E000E0
E000E0
E000E0
E000E0
E000E0
E000E0
E000E0
E000E0
E000E0
7000E0
7001C0
7803C0
3C0780
1FFF00
0FFE00
03F800
ENDCHAR
STARTCHAR 0031
ENCODING 49
SWIDTH 565 0
DWIDTH 22 0
BBX 8 28 5 0
BITMAP
FF
FF
FF
07
07
07
07
07
07
07
07
07
07
07
07
07
07
07
07
07
07
07
07
07
07
07
07
07
ENDCHAR
STARTCHAR 0032
ENCODING 50
SWIDTH 565 0
DWIDTH 22 0
BBX 18 28 2 0
BITMAP
03F000
0FFC00
1FFE00
3C0F00
700780
700380
E001C0
E001C0
E001C0
0001C0
0001C0
000380
000780
000F00
000E00
003C00
007800
00F000
01E000
03C000
078000
0F0000
1E0000
3C0000
780000
FFFFC0
FFFFC0
FFFFC0
ENDCHAR
STARTCHAR 0033
ENCODING 51
SWIDTH 565 0
DWIDTH 22 0
BBX 19 28 1 0
BITMAP
01F000
07FC00
0FFE00
1E0F00
3C0780
380380
380380
000380
000380
000700
001E00
01FC00
01FE00
000F00
000380
0001C0
0001C0
0000E0
0000E0
E000E0
E000E0
E000E0
7001C0
7803C0
3C0780
1FFF00
0FFE00
03F800
ENDCHAR
STARTCHAR 0034
ENCODING 52
SWIDTH 565 0
DWIDTH 22 0
BBX 19 28 1 0
BITMAP
000780
000F80
000F80
001F80
001F80
003B80
007380
007380
00E380
01C380
01C380
038380
070380
070380
0E0380
1C0380
1C0380
380380
780380
700380
E00380
FFFFE0
FFFFE0
000380
000380
000380
000380
000380
ENDCHAR
STARTCHAR 0035
ENCODING 53
SWIDTH 565 0
DWIDTH 22 0
BBX 19 28 1 0
BITMAP
0FFF80
0FFF80
1FFF80
1C0000
1C0000
1C0000
180000
180000
380000
3BF800
3FFE00
3E1F00
380780
7003C0
0001C0
0000E0
0000E0
0000E0
0000E0
E000E0
E000E0
E001C0
7001C0
7803C0
3C0780
1FFF00
0FFE00
03F000
ENDCHAR
STARTCHAR 0036
ENCODING 54
SWIDTH 565 0
DWIDTH 22 0
BBX 19 28 1 0
BITMAP
003800
007000
007000
00E000
01C000
03C000
038000
070000
0F0000
0FF800
1FFE00
3E1F00
3C0780
7803C0
7001C0
E000E0
E000E0
E000E0
E000E0
E000E0
E000E0
7000C0
7001C0
7803C0
3C0780
1FFF00
0FFE00
03F800
ENDCHAR
STARTCHAR 0037
ENCODING 55
SWIDTH 565 0
DWIDTH 22 0
BBX 16 28 2 0
BITMAP
FFFF
FFFF
FFFF
0007
000E
000E
001C
001C
0018
0038
0030
0070
0070
00E0
00E0
01C0
01C0
0380
0380
0300
0700
0700
0E00
0E00
1C00
1C00
3800
3800
ENDCHAR
STARTCHAR 0038
ENCODING 56
SWIDTH 565 0
DWIDTH 22 0
BBX 19 28 1 0
BITMAP
01F000
07FC00
0FFE00
1E0F00
1C0700
380380
380380
380380
380380
3C0380
1C0700
0F1E00
07FC00
0FFE00
1E0F00
380380
7001C0
7000E0
E000E0
E000E0
E000E0
E000E0
7001C0
7803C0
3C0780
1FFF00
0FFE00
03F800
ENDCHAR
STARTCHAR 0039
ENCODING 57
SWIDTH 565 0
DWIDTH 22 0
BBX 19 28 1 0
BITMAP
03F800
0FFE00
1FFF00
3C0780
7803C0
7001C0
7001E0
E000E0
E000E0
E000E0
E000E0
E000E0
E000E0
7001C0
7801C0
3C0780
1F0F80
0FFF00
03FE00
001E00
001C00
003800
007800
007000
00E000
01C000
01C000
038000
ENDCHAR
STARTCHAR 003A
ENCODING 58
SWIDTH 282 0
DWIDTH 11 0
BBX 3 21 4 0
BITMAP
E0
E0
E0
E0
E0
00
00
00
00
00
00
00
00
00
00
00
E0
E0
E0
E0
E0
ENDCHAR
STARTCHAR 003B
ENCODING 59
SWIDTH 282 0
DWIDTH 11 0
BBX 6 24 1 -3
BITMAP
1C
1C
1C
1C
1C
00
00
00
00
00
00
00
00
00
00
00
00
1C
38
38
70
70
E0
E0
ENDCHAR
STARTCHAR 003C
ENCODING 60
SWIDTH 617 0
DWIDTH 24 0
BBX 19 20 2 1
BITMAP
000020
0000E0
0003E0
001F80
007E00
01F800
07E000
1F0000
7C0000
F00000
F00000
7C0000
1F8000
07E000
01F800
007E00
001F80
0003E0
0000E0
000020
ENDCHAR
STARTCHAR 003D
ENCODING 61
SWIDTH 617 0
DWIDTH 24 0
BBX 19 9 2 5
BITMAP
FFFFE0
FFFFE0
000000
000000
000000
000000
000000
FFFFE0
FFFFE0
ENDCHAR
STARTCHAR 003E
ENCODING 62
SWIDTH 617 0
DWIDTH 24 0
BBX 19 20 2 1
BITMAP
800000
E00000
FC0000
3F0000
0FC000
03F000
00FC00
001F00
0007C0
0001E0
0001E0
0007C0
003F00
00FC00
03F000
0FC000
3F0000
F80000
E00000
800000
ENDCHAR
STARTCHAR 003F
ENCODING 63
SWIDTH 591 0
DWIDTH 23 0
BBX 18 28 2 0
BITMAP
03F800
0FFE00
1FFF00
3C0F80
780380
7003C0
E001C0
E001C0
E001C0
0001C0
0001C0
000380
000700
000F00
001C00
003800
007000
007000
00E000
00E000
00E000
000000
000000
00E000
00E000
00E000
00E000
00E000
ENDCHAR
STARTCHAR 0040
ENCODING 64
SWIDTH 874 0
DWIDTH 34 0
BBX 29 28 2 0
BITMAP
001FF000
00FFFE00
03F03F00
078007C0
0F0001C0
1E0000E0
3C000070
380FCE70
701FEC38
707C7C38
70703C38
E0E01C38
E0E01C38
E1C01C38
E1C01838
E1C01838
E1C03870
71C03870
70E078E0
70F0F9E0
387FDFC0
3C1F0F00
1C000000
0F000000
07800080
03F80F80
00FFFF00
001FF000
ENDCHAR
STARTCHAR 0041
ENCODING 65
SWIDTH 745 0
DWIDTH 29 0
BBX 27 28 0 0
BITMAP
000E0000
001F0000
001F0000
003B8000
003B8000
00338000
0071C000
0071C000
00E0E000
00E0E000
01C07000
01C07000
01C07000
03803800
03803800
07001C00
07FFFC00
0FFFFE00
0E000E00
0C000E00
1C000700
1C000700
38000380
38000380
700001C0
700001C0
700001C0
E00000E0
ENDCHAR
STARTCHAR 0042
ENCODING 66
SWIDTH 565 0
DWIDTH 22 0
BBX 18 28 3 0
BITMAP
FFE000
FFF800
FFFC00
E01E00
E00F00
E00700
E00700
E00700
E00700
E00700
E00E00
E03C00
FFF800
FFFC00
E01F00
E00700
E00380
E003C0
E001C0
E001C0
E001C0
E001C0
E00380
E00380
E00700
FFFF00
FFFC00
FFF000
ENDCHAR
STARTCHAR 0043
ENCODING 67
SWIDTH 822 0
DWIDTH 32 0
BBX 28 28 2 0
BITMAP
001FE000
00FFFC00
03FFFE00
07C00F80
0F0003C0
1E0001E0
3C0000E0
38000000
70000000
70000000
E0000000
E0000000
E0000000
E0000000
E0000000
E0000000
E0000000
70000000
70000000
78000000
38000070
3C0000E0
1E0001C0
0F000780
07C00F00
03FFFE00
00FFF800
001FC000
ENDCHAR
STARTCHAR 0044
ENCODING 68
SWIDTH 745 0
DWIDTH 29 0
BBX 24 28 3 0
BITMAP
FFF800
FFFF00
FFFFC0
E003E0
E000F0
E00078
E0003C
E0001C
E0000E
E0000E
E0000E
E00007
E00007
E00007
E00007
E00007
E00007
E00006
E0000E
E0000E
E0001C
E0003C
E00078
E000F0
E003E0
FFFFC0
FFFF00
FFF800
ENDCHAR
STARTCHAR 0045
ENCODING 69
SWIDTH 540 0
DWIDTH 21 0
BBX 15 28 3 0
BITMAP
FFFE
FFFE
FFFE
E000
E000
E000
E000
E000
E000
E000
E000
E000
E000
FFFE
FFFE
E000
E000
E000
E000
E000
E000
E000
E000
E000
E000
FFFE
FFFE
FFFE
ENDCHAR
STARTCHAR 0046
ENCODING 70
SWIDTH 488 0
DWIDTH 19 0
BBX 14 28 3 0
BITMAP
FFFC
FFFC
FFFC
E000
E000
E000
E000
E000
E000
E000
E000
E000
E000
FFFC
FFFC
E000
E000
E000
E000
E000
E000
E000
E000
E000
E000
E000
E000
E000
ENDCHAR
STARTCHAR 0047
ENCODING 71
SWIDTH 874 0
DWIDTH 34 0
BBX 30 28 1 0
BITMAP
001FE000
007FFC00
01FFFF00
07C00F80
0F0003C0
1E0001E0
1C0000F0
38000078
78000000
70000000
70000000
E0000000
E0000000
E0000000
E0000000
E01FFFFC
E01FFFFC
7000001C
70000038
78000038
38000078
1C0000F0
1E0001E0
0F8003C0
07E00F80
01FFFF00
007FFC00
001FE000
ENDCHAR
STARTCHAR 0048
ENCODING 72
SWIDTH 694 0
DWIDTH 27 0
BBX 20 28 3 0
BITMAP
E00070
E00070
E00070
E00070
E00070
E00070
E00070
E00070
E00070
E00070
E00070
E00070
E00070
FFFFF0
FFFFF0
E00070
E00070
E00070
E00070
E00070
E00070
E00070
E00070
E00070
E00070
E00070
E00070
E00070
ENDCHAR
STARTCHAR 0049
ENCODING 73
SWIDTH 231 0
DWIDTH 9 0
BBX 3 28 3 0
BITMAP
E0
E0
E0
E0
E0
E0
E0
E0
E0
E0
E0
E0
E0
E0
E0
E0
E0
E0
E0
E0
E0
E0
E0
E0
E0
E0
E0
E0
ENDCHAR
STARTCHAR 004A
ENCODING 74
SWIDTH 488 0
DWIDTH 19 0
BBX 15 28 0 0
BITMAP
000E
000E
000E
000E
000E
000E
000E
000E
000E
000E
000E
000E
000E
000E
000E
000E
000E
000E
000E
000E
000E
E00E
E00E
F01E
781C
3FF8
1FF0
07C0
ENDCHAR
STARTCHAR 004B
ENCODING 75
SWIDTH 591 0
DWIDTH 23 0
BBX 19 28 3 0
BITMAP
E000E0
E001C0
E003C0
E00780
E00F00
E00E00
E01C00
E03800
E07800
E0F000
E0E000
E1C000
E38000
E78000
EF8000
EFC000
FDE000
F8E000
F07000
F07800
E03C00
E01E00
E00E00
E00700
E00780
E003C0
E001C0
E000E0
ENDCHAR
STARTCHAR 004C
ENCODING 76
SWIDTH 462 0
DWIDTH 18 0
BBX 15 28 3 0
BITMAP
E000
E000
E000
E000
E000
E000
E000
E000
E000
E000
E000
E000
E000
E000
E000
E000
E000
E000
E000
E000
E000
E000
E000
E000
E000
FFFE
FFFE
FFFE
ENDCHAR
STARTCHAR 004D
ENCODING 77
SWIDTH 925 0
DWIDTH 36 0
BBX 29 28 3 0
BITMAP
F80000F8
F80000F8
F80000F8
FC0001F8
FC0001B8
EE0003B8
EE0003B8
E7000738
E7000738
E3000638
E3800E38
E3800E38
E1C01C38
E1C01C38
E0E03838
E0E03838
E0E03038
E0707038
E0707038
E038E038
E038E038
E01DC038
E01DC038
E01DC038
E00F8038
E00F8038
E0070038
E0070038
ENDCHAR
STARTCHAR 004E
ENCODING 78
SWIDTH 745 0
DWIDTH 29 0
BBX 22 28 3 0
BITMAP
F0001C
F8001C
F8001C
FC001C
EE001C
EE001C
E7001C
E3801C
E3801C
E1C01C
E0E01C
E0E01C
E0701C
E0381C
E0381C
E01C1C
E00E1C
E00E1C
E0071C
E0039C
E0039C
E001DC
E000FC
E000FC
E0007C
E0007C
E0003C
E0001C
ENDCHAR
STARTCHAR 004F
ENCODING 79
SWIDTH 874 0
DWIDTH 34 0
BBX 30 28 2 0
BITMAP
001FE000
00FFFC00
01FFFE00
07C00F80
0F0003C0
1E0001E0
3C0000F0
38000070
70000078
70000038
60000038
E000001C
E000001C
E000001C
E000001C
E000001C
E000001C
E0000038
70000038
70000038
38000070
3C0000F0
1E0001E0
0F0003C0
07C00F80
03FFFE00
00FFFC00
001FE000
ENDCHAR
STARTCHAR 0050
ENCODING 80
SWIDTH 591 0
DWIDTH 23 0
BBX 19 28 3 0
BITMAP
FFF800
FFFE00
FFFF00
E00780
E003C0
E001C0
E000E0
E000E0
E000E0
E000E0
E000E0
E001C0
E003C0
E00780
FFFF00
FFFE00
FFF800
E00000
E00000
E00000
E00000
E00000
E00000
E00000
E00000
E00000
E00000
E00000
ENDCHAR
STARTCHAR 0051
ENCODING 81
SWIDTH 874 0
DWIDTH 34 0
BBX 31 28 1 0
BITMAP
000FF000
007FFE00
01FFFF00
07E00FC0
0F8003E0
1E0000F0
1C000070
38000038
3800003C
7000001C
7000001C
6000000E
E000000E
E000000E
E000000E
E000000E
E000000E
6FFE000C
7FFFC01C
7807F01C
38007C38
3C001E78
1E000FF0
0F8007E0
07E007E0
01FFFFFE
00FFFC7E
001FE01E
ENDCHAR
STARTCHAR 0052
ENCODING 82
SWIDTH 617 0
DWIDTH 24 0
BBX 19 28 3 0
BITMAP
FFF000
FFFE00
FFFF00
E00780
E003C0
E001C0
E000E0
E000E0
E000E0
E000E0
E000E0
E001C0
E001C0
E003C0
E00F80
E3FF00
E1FC00
E1E000
E0F000
E07000
E07800
E03C00
E01C00
E00E00
E00F00
E00780
E00380
E001C0
ENDCHAR
STARTCHAR 0053
ENCODING 83
SWIDTH 488 0
DWIDTH 19 0
BBX 17 28 1 0
BITMAP
03E000
0FF800
1FFC00
3C1E00
780F00
700700
700700
700000
700000
780000
3C0000
1F8000
0FF000
03FC00
007E00
001F00
000700
000780
000380
000380
E00380
E00380
700700
700700
380E00
3FFE00
0FF800
03E000
ENDCHAR
STARTCHAR 0054
ENCODING 84
SWIDTH 437 0
DWIDTH 17 0
BBX 15 28 1 0
BITMAP
FFFE
FFFE
FFFE
0380
0380
0380
0380
0380
0380
0380
0380
0380
0380
0380
0380
0380
0380
0380
0380
0380
0380
0380
0380
0380
0380
0380
0380
0380
ENDCHAR
STARTCHAR 0055
ENCODING 85
SWIDTH 642 0
DWIDTH 25 0
BBX 19 28 3 0
BITMAP
E000E0
E000E0
E000E0
E000E0
E000E0
E000E0
E000E0
E000E0
E000E0
E000E0
E000E0
E000E0
E000E0
E000E0
E000E0
E000E0
E000E0
E000E0
E000E0
E000E0
E000E0
7000C0
7001C0
7803C0
3C0780
1FFF00
0FFE00
03F800
ENDCHAR
STARTCHAR 0056
ENCODING 86
SWIDTH 694 0
DWIDTH 27 0
BBX 26 28 0 0
BITMAP
E00001C0
F0000380
70000380
70000380
38000700
38000700
1C000E00
1C000E00
1C001C00
0E001C00
0E001C00
07003800
07003800
07807000
03807000
03807000
01C0E000
01C0E000
00E1C000
00E1C000
00E18000
00738000
00738000
003F0000
003F0000
003E0000
001E0000
001E0000
ENDCHAR
STARTCHAR 0057
ENCODING 87
SWIDTH 951 0
DWIDTH 37 0
BBX 36 28 0 0
BITMAP
E000700070
7000F00070
7000F000E0
7000F000E0
7000F800E0
3801F800C0
3801D801C0
38019C01C0
1C039C01C0
1C039C0380
1C038C0380
1C030E0380
0E070E0300
0E070E0700
0E07060700
0706070700
070E070E00
070E070E00
030C038E00
039C038C00
039C039C00
039C019C00
019801DC00
01F801F800
01F801F800
00F800F800
00F000F000
00F000F000
ENDCHAR
STARTCHAR 0058
ENCODING 88
SWIDTH 617 0
DWIDTH 24 0
BBX 23 28 0 0
BITMAP
70001C
380038
3C0078
1C0070
0E00E0
0F01E0
0701C0
038380
03C780
01C700
00EE00
00FE00
007C00
003800
007C00
007C00
00EE00
01EF00
03C780
038380
0701C0
0F01E0
0E00E0
1C0070
3C0078
380038
70001C
F0001E
ENDCHAR
STARTCHAR 0059
ENCODING 89
SWIDTH 591 0
DWIDTH 23 0
BBX 22 28 0 0
BITMAP
F0001C
70001C
380038
380038
1C0070
1C0070
0E00E0
0E00E0
0701C0
0701C0
038380
038380
01C700
01C700
00EE00
00FE00
007C00
007800
003800
003800
003800
003800
003800
003800
003800
003800
003800
003800
ENDCHAR
STARTCHAR 005A
ENCODING 90
SWIDTH 488 0
DWIDTH 19 0
BBX 17 28 0 0
BITMAP
FFFF80
FFFF80
FFFF80
000700
000700
000E00
001E00
001C00
003800
003800
007000
00F000
00E000
01C000
01C000
038000
078000
070000
0E0000
0E0000
1C0000
380000
380000
700000
700000
FFFF80
FFFF80
FFFF80
ENDCHAR
STARTCHAR 005B
ENCODING 91
SWIDTH 360 0
DWIDTH 14 0
BBX 8 36 5 -8
BITMAP
03
0F
1F
3C
38
70
70
E0
E0
E0
E0
E0
E0
E0
E0
E0
E0
E0
E0
E0
E0
E0
E0
E0
E0
E0
E0
E0
E0
70
70
38
3E
1F
07
01
ENDCHAR
STARTCHAR 005C
ENCODING 92
SWIDTH 617 0
DWIDTH 24 0
BBX 13 32 5 -5
BITMAP
E000
F000
7000
7000
7800
3800
3800
3C00
1C00
1C00
1E00
0E00
0E00
0600
0700
0700
0300
0380
0380
0180
01C0
01C0
00C0
00E0
00E0
0060
0070
0070
0030
0038
0038
0018
ENDCHAR
STARTCHAR 005D
ENCODING 93
SWIDTH 360 0
DWIDTH 14 0
BBX 8 36 0 -8
BITMAP
C0
F0
F8
3C
1C
0E
0E
07
07
07
07
07
07
07
07
07
07
07
07
07
07
07
07
07
07
07
07
07
07
0E
0E
1C
7C
F8
E0
80
ENDCHAR
STARTCHAR 005E
ENCODING 94
SWIDTH 617 0
DWIDTH 24 0
BBX 19 17 2 11
BITMAP
00E000
00E000
01F000
01B000
03B800
031800
071C00
060C00
0E0E00
0C0600
1C0700
180300
380380
300180
7001C0
6000C0
E000E0
ENDCHAR
STARTCHAR 005F
ENCODING 95
SWIDTH 488 0
DWIDTH 19 0
BBX 19 2 0 -4
BITMAP
FFFFE0
FFFFE0
ENDCHAR
STARTCHAR 0060
ENCODING 96
SWIDTH 385 0
DWIDTH 15 0
BBX 8 6 3 24
BITMAP
40
F0
7C
1F
07
01
ENDCHAR
STARTCHAR 0061
ENCODING 97
SWIDTH 694 0
DWIDTH 27 0
BBX 22 21 2 0
BITMAP
00FC1C
07FF1C
0FCFDC
1E01FC
3800FC
78007C
70003C
E0003C
E0001C
E0001C
E0001C
E0001C
E0001C
E0003C
70003C
78007C
3800FC
1E01FC
0FCFDC
07FF1C
00FC1C
ENDCHAR
STARTCHAR 0062
ENCODING 98
SWIDTH 694 0
DWIDTH 27 0
BBX 22 28 3 0
BITMAP
E00000
E00000
E00000
E00000
E00000
E00000
E00000
E0FC00
E3FF80
EFDFC0
FE01E0
F800F0
F80078
F00038
E00038
E0001C
E0001C
E0001C
E0001C
E0001C
E00018
F00038
F80078
FC00F0
FE01E0
EFCFC0
E3FF80
E0FC00
ENDCHAR
STARTCHAR 0063
ENCODING 99
SWIDTH 642 0
DWIDTH 25 0
BBX 22 21 1 0
BITMAP
00FE00
03FF80
0FEFE0
1E00F0
3C0078
380038
70001C
700000
E00000
E00000
E00000
E00000
E00000
700000
700000
380038
3C0078
1E00F0
0FEFE0
03FF80
00FE00
ENDCHAR
STARTCHAR 0064
ENCODING 100
SWIDTH 694 0
DWIDTH 27 0
BBX 23 28 1 0
BITMAP
00000E
00000E
00000E
00000E
00000E
00000E
00000E
00FE0E
03FF8E
0FEFEE
1E00FE
3C007E
38003E
70001E
70001E
E0000E
E0000E
E0000E
E0000E
E0000E
70001E
70001E
78003E
3C007E
1E00EE
0FE7EE
03FF8E
00FE0E
ENDCHAR
STARTCHAR 0065
ENCODING 101
SWIDTH 642 0
DWIDTH 25 0
BBX 22 21 1 0
BITMAP
00FC00
07FF80
0FDFC0
1E01E0
380070
780038
700038
600018
E0001C
FFFFFC
FFFFFC
E00000
E00000
700000
700038
780070
3C0070
1E01E0
0FDFC0
07FF00
00FC00
ENDCHAR
STARTCHAR 0066
ENCODING 102
SWIDTH 308 0
DWIDTH 12 0
BBX 11 28 1 0
BITMAP
01E0
07E0
0FE0
0E00
1C00
1C00
1C00
FFE0
FFE0
1C00
1C00
1C00
1C00
1C00
1C00
1C00
1C00
1C00
1C00
1C00
1C00
1C00
1C00
1C00
1C00
1C00
1C00
1C00
ENDCHAR
STARTCHAR 0067
ENCODING 103
SWIDTH 668 0
DWIDTH 26 0
BBX 22 28 1 -7
BITMAP
00FC1C
03FF1C
0FCFDC
1E01FC
3C00FC
38007C
70003C
70001C
E0001C
E0001C
E0001C
E0001C
E0001C
70001C
70003C
78007C
3C007C
1E01FC
0FCFDC
07FF1C
00FC1C
70001C
380038
3C0078
1E00F0
0FEFE0
03FFC0
00FE00
ENDCHAR
STARTCHAR 0068
ENCODING 104
SWIDTH 617 0
DWIDTH 24 0
BBX 19 28 2 0
BITMAP
E00000
E00000
E00000
E00000
E00000
E00000
E00000
E1F800
E7FE00
EFBF00
FC0780
F803C0
F001C0
F001E0
E000E0
E000E0
E000E0
E000E0
E000E0
E000E0
E000E0
E000E0
E000E0
E000E0
E000E0
E000E0
E000E0
E000E0
ENDCHAR
STARTCHAR 0069
ENCODING 105
SWIDTH 205 0
DWIDTH 8 0
BBX 3 28 2 0
BITMAP
E0
E0
E0
E0
E0
00
00
E0
E0
E0
E0
E0
E0
E0
E0
E0
E0
E0
E0
E0
E0
E0
E0
E0
E0
E0
E0
E0
ENDCHAR
STARTCHAR 006A
ENCODING 106
SWIDTH 205 0
DWIDTH 8 0
BBX 7 35 -2 -7
BITMAP
0E
0E
0E
0E
0E
00
00
0E
0E
0E
0E
0E
0E
0E
0E
0E
0E
0E
0E
0E
0E
0E
0E
0E
0E
0E
0E
0E
0E
0E
1E
1C
FC
F8
E0
ENDCHAR
STARTCHAR 006B
ENCODING 107
SWIDTH 514 0
DWIDTH 20 0
BBX 16 28 3 0
BITMAP
E000
E000
E000
E000
E000
E000
E000
E00F
E00E
E01C
E038
E078
E0F0
E0E0
E1C0
E380
E780
E700
EF80
FF80
FDC0
F8E0
F0F0
E078
E03C
E01C
E00E
E007
ENDCHAR
STARTCHAR 006C
ENCODING 108
SWIDTH 205 0
DWIDTH 8 0
BBX 3 28 2 0
BITMAP
E0
E0
E0
E0
E0
E0
E0
E0
E0
E0
E0
E0
E0
E0
E0
E0
E0
E0
E0
E0
E0
E0
E0
E0
E0
E0
E0
E0
ENDCHAR
STARTCHAR 006D
ENCODING 109
SWIDTH 925 0
DWIDTH 36 0
BBX 31 21 2 0
BITMAP
E3E00FC0
EFF83FF0
FF7E7DF8
F80EE03C
F007C01C
F003C00E
E003800E
E003800E
E003800E
E003800E
E003800E
E003800E
E003800E
E003800E
E003800E
E003800E
E003800E
E003800E
E003800E
E003800E
E003800E
ENDCHAR
STARTCHAR 006E
ENCODING 110
SWIDTH 617 0
DWIDTH 24 0
BBX 19 21 2 0
BITMAP
E1F800
E7FE00
EFBF00
FC0780
F803C0
F001C0
F000E0
E000E0
E000E0
E000E0
E000E0
E000E0
E000E0
E000E0
E000E0
E000E0
E000E0
E000E0
E000E0
E000E0
E000E0
ENDCHAR
STARTCHAR 006F
ENCODING 111
SWIDTH 642 0
DWIDTH 25 0
BBX 22 21 2 0
BITMAP
00FC00
07FF80
0FCFC0
1E01E0
3C00F0
780078
700038
600038
E0001C
E0001C
E0001C
E0001C
E0001C
E00038
700038
780078
3C00F0
1E01E0
0FCFC0
07FF00
00FC00
ENDCHAR
STARTCHAR 0070
ENCODING 112
SWIDTH 694 0
DWIDTH 27 0
BBX 23 28 2 -7
BITMAP
E0FE00
E3FF80
E7CFE0
EE00F0
FC0078
F8003C
F0001C
F0001C
E0000E
E0000E
E0000E
E0000E
E0000E
F0001C
F0001C
F8003C
FC0078
EE00F0
EFEFE0
E3FF80
E0FE00
E00000
E00000
E00000
E00000
E00000
E00000
E00000
ENDCHAR
STARTCHAR 0071
ENCODING 113
SWIDTH 694 0
DWIDTH 27 0
BBX 23 28 1 -7
BITMAP
00FE0E
03FF8E
0FEFEE
1E00FE
3C007E
38003E
70001E
70001E
E0000E
E0000E
E0000E
E0000E
E0000E
70001E
70001E
78003E
3C007E
1E00FE
0FE7EE
03FF8E
00FE0E
00000E
00000E
00000E
00000E
00000E
00000E
00000E
ENDCHAR
STARTCHAR 0072
ENCODING 114
SWIDTH 308 0
DWIDTH 12 0
BBX 9 21 2 0
BITMAP
E380
EF80
EF80
FC00
F800
F000
E000
E000
E000
E000
E000
E000
E000
E000
E000
E000
E000
E000
E000
E000
E000
ENDCHAR
STARTCHAR 0073
ENCODING 115
SWIDTH 385 0
DWIDTH 15 0
BBX 13 21 1 0
BITMAP
0F80
1FC0
3DE0
7070
7070
7070
7000
7800
3E00
1F80
07E0
01F0
0070
0038
0038
E038
E038
7070
7DF0
3FE0
0F80
ENDCHAR
STARTCHAR 0074
ENCODING 116
SWIDTH 334 0
DWIDTH 13 0
BBX 12 28 1 0
BITMAP
0E00
0E00
0E00
0E00
0E00
0E00
0E00
FFF0
FFF0
0E00
0E00
0E00
0E00
0E00
0E00
0E00
0E00
0E00
0E00
0E00
0E00
0E00
0E00
0E00
0E00
0E00
0E00
0E00
ENDCHAR
STARTCHAR 0075
ENCODING 117
SWIDTH 617 0
DWIDTH 24 0
BBX 19 21 2 0
BITMAP
E000E0
E000E0
E000E0
E000E0
E000E0
E000E0
E000E0
E000E0
E000E0
E000E0
E000E0
E000E0
E000E0
E000E0
E001E0
7001E0
7003E0
3C07E0
1FBEE0
0FFCE0
03F0E0
ENDCHAR
STARTCHAR 0076
ENCODING 118
SWIDTH 565 0
DWIDTH 22 0
BBX 20 21 1 0
BITMAP
E00070
E000E0
E000E0
7000E0
7001C0
3801C0
380380
180380
1C0300
1C0700
0E0700
0E0E00
070E00
071C00
031C00
039C00
03B800
01F800
01F000
00F000
00E000
ENDCHAR
STARTCHAR 0077
ENCODING 119
SWIDTH 822 0
DWIDTH 32 0
BBX 31 21 1 0
BITMAP
E000000E
7000000C
7003801C
3003801C
3803C018
3807C038
1807C038
1C06C070
1C0EE070
0E0EE060
0E0C60E0
060C70E0
071C70C0
071C31C0
03183980
03B83B80
03B81B80
01F01F00
01F01F00
00F00F00
00E00E00
ENDCHAR
STARTCHAR 0078
ENCODING 120
SWIDTH 488 0
DWIDTH 19 0
BBX 17 21 0 0
BITMAP
E00780
700700
380E00
380E00
1C1C00
0E3800
0E3800
077000
03E000
03E000
01C000
03E000
03E000
077000
0E3800
0E3800
1C1C00
380E00
380E00
700700
E00380
ENDCHAR
STARTCHAR 0079
ENCODING 121
SWIDTH 540 0
DWIDTH 21 0
BBX 19 28 1 -7
BITMAP
E000E0
6000C0
7001C0
7001C0
380380
380380
180700
1C0700
1C0600
0E0E00
0E0E00
061C00
071C00
071800
033800
03B000
01F000
01F000
01E000
00E000
00C000
01C000
018000
038000
038000
030000
070000
060000
ENDCHAR
STARTCHAR 007A
ENCODING 122
SWIDTH 437 0
DWIDTH 17 0
BBX 15 21 0 0
BITMAP
FFFC
FFFC
001C
003C
0038
0070
00F0
00E0
01C0
0380
0380
0700
0E00
0E00
1C00
3800
7800
7000
E000
FFFE
FFFE
ENDCHAR
STARTCHAR 007B
ENCODING 123
SWIDTH 360 0
DWIDTH 14 0
BBX 10 35 3 -8
BITMAP
07C0
0FC0
1E00
1C00
1C00
1C00
1C00
1C00
1C00
1C00
1C00
1C00
1C00
1C00
3C00
3800
F000
E000
F000
7800
3C00
1C00
1C00
1C00
1C00
1C00
1C00
1C00
1C00
1C00
1C00
1C00
1E00
0FC0
07C0
ENDCHAR
STARTCHAR 007C
ENCODING 124
SWIDTH 668 0
DWIDTH 26 0
BBX 3 38 11 -9
BITMAP
E0
E0
E0
E0
E0
E0
E0
E0
E0
E0
E0
E0
E0
E0
E0
E0
E0
E0
E0
E0
E0
E0
E0
E0
E0
E0
E0
E0
E0
E0
E0
E0
E0
E0
E0
E0
E0
E0
ENDCHAR
STARTCHAR 007D
ENCODING 125
SWIDTH 360 0
DWIDTH 14 0
BBX 11 35 0 -8
BITMAP
F800
FC00
1E00
0E00
0E00
0E00
0E00
0E00
0E00
0E00
0E00
0E00
0E00
0E00
0700
0780
03E0
00E0
03E0
0780
0700
0E00
0E00
0E00
0E00
0E00
0E00
0E00
0E00
0E00
0E00
0E00
1E00
FC00
F800
ENDCHAR
STARTCHAR 007E
ENCODING 126
SWIDTH 617 0
DWIDTH 24 0
BBX 17 5 3 7
BITMAP
1E0080
7FC180
63F380
C07F00
401E00
ENDCHAR
STARTCHAR 00A0
ENCODING 160
SWIDTH 282 0
DWIDTH 11 0
BBX 0 0 0 0
BITMAP
ENDCHAR
STARTCHAR 00A3
ENCODING 163
SWIDTH 565 0
DWIDTH 22 0
BBX 21 28 0 0
BITMAP
01FC00
07FF00
0FDF80
1E03C0
3C01C0
3800E0
3000E0
700060
700000
700000
700000
700000
380000
FFFF00
FFFF00
0F0000
078000
03C000
01C038
00E038
00E038
00E038
00E038
00C070
01C0F0
01CFE0
7FFFC0
7FFE00
ENDCHAR
STARTCHAR 00A4
ENCODING 164
SWIDTH 565 0
DWIDTH 22 0
BBX 21 20 0 2
BITMAP
600010
F00078
78FCF0
3FFFE0
0F07C0
0E0380
1C01C0
1C00E0
3800E0
3800E0
3800E0
3800E0
1C00E0
1C01C0
0E0380
0F07C0
3FFFE0
79FCF0
F00078
600010
ENDCHAR
STARTCHAR 00A6
ENCODING 166
SWIDTH 668 0
DWIDTH 26 0
BBX 3 33 11 -6
BITMAP
E0
E0
E0
E0
E0
E0
E0
E0
E0
E0
E0
E0
E0
E0
00
00
00
00
00
E0
E0
E0
E0
E0
E0
E0
E0
E0
E0
E0
E0
E0
E0
ENDCHAR
STARTCHAR 00A7
ENCODING 167
SWIDTH 617 0
DWIDTH 24 0
BBX 17 33 3 -6
BITMAP
03F000
0FF800
1FFC00
1C1E00
380E00
380E00
380000
380000
1C0000
1E0000
1F8000
3BE000
70F800
E03E00
E00F00
E00700
E00380
700380
7C0380
1F0300
07C700
03FE00
00FC00
003E00
000E00
000700
700700
700700
380700
380E00
1C1E00
0FFC00
07F000
ENDCHAR
STARTCHAR 00A8
ENCODING 168
SWIDTH 360 0
DWIDTH 14 0
BBX 8 5 3 25
BITMAP
E7
E7
E7
E7
E7
ENDCHAR
STARTCHAR 00A9
ENCODING 169
SWIDTH 745 0
DWIDTH 29 0
BBX 30 28 0 0
BITMAP
001FE000
00FFFC00
03E03F00
07800780
0E0003C0
1C1FC0E0
383FF0F0
38F03870
70E01838
71C00C38
E1C00C18
E380001C
E380001C
E380001C
E380001C
E380001C
E1C0001C
61C00C38
70E01C38
70F03838
387FF070
3C1FC0E0
1C0001E0
0F0003C0
07800780
03E01E00
00FFF800
001FE000
ENDCHAR
STARTCHAR 00AB
ENCODING 171
SWIDTH 437 0
DWIDTH 17 0
BBX 13 15 2 3
BITMAP
0830
1C38
1C70
3870
38E0
70E0
61C0
E180
71C0
70E0
38E0
3870
1C70
1C38
0830
ENDCHAR
STARTCHAR 00AC
ENCODING 172
SWIDTH 617 0
DWIDTH 24 0
BBX 19 10 2 4
BITMAP
FFFFE0
FFFFE0
0000E0
0000E0
0000E0
0000E0
0000E0
0000E0
0000E0
0000E0
ENDCHAR
STARTCHAR 00AD
ENCODING 173
SWIDTH 334 0
DWIDTH 13 0
BBX 10 2 1 9
BITMAP
FFC0
FFC0
ENDCHAR
STARTCHAR 00AE
ENCODING 174
SWIDTH 745 0
DWIDTH 29 0
BBX 30 28 0 0
BITMAP
001FE000
00FFFC00
03E03F00
07800780
0E0003C0
1CFFE0E0
38FFF8F0
38E03870
70E01C38
70E01C38
E0E01C1C
E0E01C1C
E0E0381C
E0FFF01C
E0FFF01C
E0E0781C
E0E01C1C
70E01C38
70E01C38
70E01C38
38E01C70
3CE01CE0
1E0001E0
0F0003C0
07800780
03E03E00
00FFF800
001FE000
ENDCHAR
STARTCHAR 00B0
ENCODING 176
SWIDTH 411 0
DWIDTH 16 0
BBX 11 11 2 17
BITMAP
1F00
3F80
71C0
E0E0
C060
C060
C060
E0E0
71C0
3F80
1F00
ENDCHAR
STARTCHAR 00B1
ENCODING 177
SWIDTH 617 0
DWIDTH 24 0
BBX 19 21 2 -1
BITMAP
00E000
00E000
00E000
00E000
00E000
00E000
00E000
FFFFE0
FFFFE0
00E000
00E000
00E000
00E000
00E000
00E000
00E000
00E000
000000
000000
FFFFE0
FFFFE0
ENDCHAR
STARTCHAR 00B4
ENCODING 180
SWIDTH 385 0
DWIDTH 15 0
BBX 9 6 3 25
BITMAP
0300
0F80
3F00
7C00
F000
4000
ENDCHAR
STARTCHAR 00B5
ENCODING 181
SWIDTH 617 0
DWIDTH 24 0
BBX 17 28 3 -7
BITMAP
E00380
E00380
E00380
E00380
E00380
E00380
E00380
E00380
E00380
E00380
E00380
E00380
E00380
E00380
E00380
F00780
F00780
F80F80
FF7F80
EFFB80
E3E380
E00000
E00000
E00000
E00000
E00000
E00000
E00000
ENDCHAR
STARTCHAR 00B6
ENCODING 182
SWIDTH 565 0
DWIDTH 22 0
BBX 20 33 1 -5
BITMAP
07FFF0
1FFFF0
3FE1C0
7FE1C0
FFE1C0
FFE1C0
FFE1C0
FFE1C0
FFE1C0
FFE1C0
FFE1C0
7FE1C0
7FE1C0
1FE1C0
0FE1C0
00E1C0
00E1C0
00E1C0
00E1C0
00E1C0
00E1C0
00E1C0
00E1C0
00E1C0
00E1C0
00E1C0
00E1C0
00E1C0
00E1C0
00E1C0
00E1C0
00E1C0
00E1C0
ENDCHAR
STARTCHAR 00B7
ENCODING 183
SWIDTH 282 0
DWIDTH 11 0
BBX 3 5 4 7
BITMAP
E0
E0
E0
E0
E0
ENDCHAR
STARTCHAR 00B8
ENCODING 184
SWIDTH 334 0
DWIDTH 13 0
BBX 7 8 3 -9
BITMAP
30
60
7C
4E
06
C6
C6
7C
ENDCHAR
STARTCHAR 00BB
ENCODING 187
SWIDTH 437 0
DWIDTH 17 0
BBX 13 15 1 3
BITMAP
4080
E1C0
71C0
70E0
38E0
3870
1C30
0C38
1C70
3870
38E0
70E0
71C0
E1C0
4080
ENDCHAR
STARTCHAR 00C1
ENCODING 193
SWIDTH 745 0
DWIDTH 29 0
BBX 27 36 0 1
BITMAP
00008000
0003C000
000FC000
001F0000
003C0000
00300000
00000000
00000000
000E0000
001F0000
001F0000
003B8000
003B8000
00338000
0071C000
0071C000
00E0E000
00E0E000
01C07000
01C07000
01C07000
03803800
03803800
07001C00
07FFFC00
0FFFFE00
0E000E00
0C000E00
1C000700
1C000700
38000380
38000380
700001C0
700001C0
700001C0
E00000E0
ENDCHAR
STARTCHAR 00C2
ENCODING 194
SWIDTH 745 0
DWIDTH 29 0
BBX 27 36 0 0
BITMAP
000E0000
001F0000
003B8000
00F1E000
01E0F000
00000000
00000000
00000000
000E0000
001F0000
001F0000
003B8000
003B8000
00338000
0071C000
0071C000
00E0E000
00E0E000
01C07000
01C07000
01C07000
03803800
03803800
07001C00
07FFFC00
0FFFFE00
0E000E00
0C000E00
1C000700
1C000700
38000380
38000380
700001C0
700001C0
700001C0
E00000E0
ENDCHAR
STARTCHAR 00C4
ENCODING 196
SWIDTH 745 0
DWIDTH 29 0
BBX 26 36 1 0
BITMAP
00738000
00738000
00738000
00738000
00738000
00000000
00000000
00000000
001E0000
001E0000
001E0000
003F0000
00370000
00738000
00738000
00E1C000
00E1C000
00C0C000
01C0E000
01C0E000
03807000
03807000
07003800
07003800
07FFF800
0FFFFC00
0C001C00
1C000E00
1C000E00
38000700
38000700
30000780
70000380
70000380
E00001C0
E00001C0
ENDCHAR
STARTCHAR 00C7
ENCODING 199
SWIDTH 822 0
DWIDTH 32 0
BBX 28 36 2 -9
BITMAP
001FE000
00FFF800
03FFFE00
07C01F80
0F0007C0
1E0001E0
3C0000E0
38000000
70000000
70000000
E0000000
E0000000
E0000000
E0000000
E0000000
E0000000
E0000000
70000000
70000000
70000000
380000F0
3C0001E0
1E0003C0
0F000780
07C01F00
03FFFE00
00FFF800
001FC000
00040000
000C0000
000F8000
0009C000
0000C000
0018C000
0019C000
000F8000
ENDCHAR
STARTCHAR 00C9
ENCODING 201
SWIDTH 540 0
DWIDTH 21 0
BBX 15 36 3 1
BITMAP
0020
00F0
03F0
07C0
0F00
0C00
0000
0000
FFFE
FFFE
FFFE
E000
E000
E000
E000
E000
E000
E000
E000
E000
E000
FFFE
FFFE
E000
E000
E000
E000
E000
E000
E000
E000
E000
E000
FFFE
FFFE
FFFE
ENDCHAR
STARTCHAR 00CB
ENCODING 203
SWIDTH 540 0
DWIDTH 21 0
BBX 16 36 3 0
BITMAP
1C70
1C70
1C70
1C70
1C70
0000
0000
0000
FFFF
FFFF
FFFF
E000
E000
E000
E000
E000
E000
E000
E000
E000
E000
FFFE
FFFE
E000
E000
E000
E000
E000
E000
E000
E000
E000
E000
FFFF
FFFF
FFFF
ENDCHAR
STARTCHAR 00CD
ENCODING 205
SWIDTH 231 0
DWIDTH 9 0
BBX 8 36 2 1
BITMAP
03
07
1F
7C
F0
E0
00
00
70
70
70
70
70
70
70
70
70
70
70
70
70
70
70
70
70
70
70
70
70
70
70
70
70
70
70
70
ENDCHAR
STARTCHAR 00CE
ENCODING 206
SWIDTH 231 0
DWIDTH 9 0
BBX 13 36 -2 0
BITMAP
0700
0F80
3DC0
78F0
F078
0000
0000
0000
0700
0700
0700
0700
0700
0700
0700
0700
0700
0700
0700
0700
0700
0700
0700
0700
0700
0700
0700
0700
0700
0700
0700
0700
0700
0700
0700
0700
ENDCHAR
STARTCHAR 00D3
ENCODING 211
SWIDTH 874 0
DWIDTH 34 0
BBX 30 35 2 1
BITMAP
00003000
0000F800
0003F000
0007C000
00070000
00040000
00000000
001FE000
00FFFC00
01FFFE00
07C00F80
0F0003C0
1E0001E0
3C0000F0
38000070
70000078
70000038
60000038
E000001C
E000001C
E000001C
E000001C
E000001C
E000001C
E0000038
70000038
70000038
38000070
3C0000F0
1E0001E0
0F0003C0
07C00F80
03FFFE00
00FFFC00
001FE000
ENDCHAR
STARTCHAR 00D4
ENCODING 212
SWIDTH 874 0
DWIDTH 34 0
BBX 30 36 2 0
BITMAP
00078000
000FC000
001FE000
00387000
00703800
00000000
00000000
00000000
001FE000
00FFFC00
01FFFE00
07C00F80
0F0003C0
1E0001E0
3C0000F0
38000070
70000078
70000038
60000038
E000001C
E000001C
E000001C
E000001C
E000001C
E000001C
E0000038
70000038
70000038
38000070
3C0000F0
1E0001E0
0F0003C0
07C00F80
03FFFE00
00FFFC00
001FE000
ENDCHAR
STARTCHAR 00D5
ENCODING 213
SWIDTH 874 0
DWIDTH 34 0
BBX 30 35 2 0
BITMAP
003C0000
007F1800
0063F800
0040F000
00000000
00000000
00000000
001FE000
00FFFC00
01FFFE00
07C00F80
0F0003C0
1E0001E0
3C0000F0
38000070
70000078
70000038
60000038
E000001C
E000001C
E000001C
E000001C
E000001C
E000001C
E0000038
70000038
70000038
38000070
3C0000F0
1E0001E0
0F0003C0
07C00F80
03FFFE00
00FFFC00
001FE000
ENDCHAR
STARTCHAR 00D6
ENCODING 214
SWIDTH 874 0
DWIDTH 34 0
BBX 30 36 2 0
BITMAP
0038E000
0038E000
0038E000
0038E000
0038E000
00000000
00000000
00000000
001FE000
00FFF800
03FFFE00
07C01F80
0F0007C0
1E0001E0
3C0000F0
38000070
70000078
70000038
60000038
E000001C
E000001C
E000001C
E000001C
E000001C
E000001C
E0000038
70000038
70000038
38000070
3C0000E0
1E0001E0
0F0007C0
07C01F80
03FFFE00
00FFF800
001FC000
ENDCHAR
STARTCHAR 00D7
ENCODING 215
SWIDTH 617 0
DWIDTH 24 0
BBX 18 18 3 1
BITMAP
400080
E001C0
700380
380700
1C0E00
0E1C00
073800
03F000
01E000
01E000
03F000
073800
0E1C00
1C0E00
380700
700380
E001C0
400080
ENDCHAR
STARTCHAR 00DA
ENCODING 218
SWIDTH 642 0
DWIDTH 25 0
BBX 19 36 3 1
BITMAP
000400
001C00
007C00
01F800
03E000
018000
000000
000000
E000E0
E000E0
E000E0
E000E0
E000E0
E000E0
E000E0
E000E0
E000E0
E000E0
E000E0
E000E0
E000E0
E000E0
E000E0
E000E0
E000E0
E000E0
E000E0
E000E0
E000E0
7000C0
7001C0
7803C0
3C0780
1FFF00
0FFE00
03F800
ENDCHAR
STARTCHAR 00DC
ENCODING 220
SWIDTH 642 0
DWIDTH 25 0
BBX 19 36 3 0
BITMAP
071C00
071C00
071C00
071C00
071C00
000000
000000
000000
E000E0
E000E0
E000E0
E000E0
E000E0
E000E0
E000E0
E000E0
E000E0
E000E0
E000E0
E000E0
E000E0
E000E0
E000E0
E000E0
E000E0
E000E0
E000E0
E000E0
E000E0
7000C0
7001C0
7803C0
3C0780
1FFF00
0FFE00
03F800
ENDCHAR
STARTCHAR 00DD
ENCODING 221
SWIDTH 591 0
DWIDTH 23 0
BBX 22 36 0 1
BITMAP
000100
000700
001F80
007E00
00F800
006000
000000
000000
F0001C
70001C
780038
380038
1C0070
1C0070
0E00E0
0E00E0
0701C0
0701C0
038380
038380
01C700
01C700
00EE00
00EE00
007C00
007800
003800
003800
003800
003800
003800
003800
003800
003800
003800
003800
ENDCHAR
STARTCHAR 00DF
ENCODING 223
SWIDTH 565 0
DWIDTH 22 0
BBX 18 28 2 0
BITMAP
07E000
1FF800
3FFC00
781E00
700E00
700700
E00700
E00700
E00700
E00700
E00E00
E01E00
E07C00
E3F800
E3FE00
E00F00
E00780
E003C0
E001C0
E001C0
F801C0
F801C0
F801C0
FC0380
EE0780
EFFF00
E7FE00
E1F800
ENDCHAR
STARTCHAR 00E1
ENCODING 225
SWIDTH 694 0
DWIDTH 27 0
BBX 22 30 2 0
BITMAP
000200
000600
001F00
007C00
01F000
00E000
008000
000000
000000
00FC1C
07FF1C
0FCFDC
1E01FC
3800FC
78007C
70003C
E0003C
E0001C
E0001C
E0001C
E0001C
E0001C
E0003C
70003C
78007C
3800FC
1E01FC
0FCFDC
07FF1C
00FC1C
ENDCHAR
STARTCHAR 00E2
ENCODING 226
SWIDTH 694 0
DWIDTH 27 0
BBX 22 30 2 0
BITMAP
003800
007C00
01EE00
03C700
078380
000000
000000
000000
000000
00FC1C
07FF1C
0FCFDC
1E01FC
3800FC
78007C
70003C
E0003C
E0001C
E0001C
E0001C
E0001C
E0001C
E0003C
70003C
78007C
3800FC
1E01FC
0FCFDC
07FF1C
00FC1C
ENDCHAR
STARTCHAR 00E4
ENCODING 228
SWIDTH 694 0
DWIDTH 27 0
BBX 22 30 2 0
BITMAP
01CE00
01CE00
01CE00
01CE00
01CE00
000000
000000
000000
000000
00FC1C
07FF1C
0FCFDC
1E01FC
3800FC
70007C
70003C
E0003C
E0001C
E0001C
E0001C
E0001C
E0001C
E0003C
70003C
78007C
3800FC
1E01FC
0FCFDC
07FF1C
01FC1C
ENDCHAR
STARTCHAR 00E7
ENCODING 231
SWIDTH 642 0
DWIDTH 25 0
BBX 23 29 1 -9
BITMAP
007F00
03FFC0
0FE7F0
1F0078
3C003C
38001C
70000E
700000
E00000
E00000
E00000
E00000
E00000
700000
700000
38001C
3C003C
1E0078
0FC3F0
03FFC0
00FF00
003000
003000
007E00
002600
000300
004300
006600
003C00
ENDCHAR
STARTCHAR 00E9
ENCODING 233
SWIDTH 642 0
DWIDTH 25 0
BBX 22 30 1 0
BITMAP
000200
000E00
001F00
007C00
01F000
01C000
008000
000000
000000
00FC00
07FF80
0FDFC0
1E01E0
380070
780038
700038
600018
E0001C
FFFFFC
FFFFFC
E00000
E00000
700000
700038
780070
3C0070
1E01E0
0FDFC0
07FF00
00FC00
ENDCHAR
STARTCHAR 00EB
ENCODING 235
SWIDTH 642 0
DWIDTH 25 0
BBX 22 30 1 0
BITMAP
01C700
01C700
01C700
01C700
01C700
000000
000000
000000
000000
00FE00
03FF80
0FEFE0
1E00F0
3C0078
780038
70001C
60001C
E0000C
FFFFFC
FFFFFC
E00000
E00000
700000
70001C
380038
3C0070
1E00E0
0FEFC0
03FF80
00FE00
ENDCHAR
STARTCHAR 00ED
ENCODING 237
SWIDTH 205 0
DWIDTH 8 0
BBX 8 30 1 1
BITMAP
03
0F
1F
7C
F0
40
00
00
00
70
70
70
70
70
70
70
70
70
70
70
70
70
70
70
70
70
70
70
70
70
ENDCHAR
STARTCHAR 00EE
ENCODING 238
SWIDTH 205 0
DWIDTH 8 0
BBX 13 30 -3 0
BITMAP
0780
0FC0
1DE0
78F0
F078
0000
0000
0000
0000
0700
0700
0700
0700
0700
0700
0700
0700
0700
0700
0700
0700
0700
0700
0700
0700
0700
0700
0700
0700
0700
ENDCHAR
STARTCHAR 00F3
ENCODING 243
SWIDTH 642 0
DWIDTH 25 0
BBX 22 29 2 1
BITMAP
000700
000F00
003E00
00F800
00E000
004000
000000
000000
00FC00
07FF80
0FCFC0
1E01E0
3C00F0
780078
700038
600038
E0001C
E0001C
E0001C
E0001C
E0001C
E00038
700038
780078
3C00F0
1E01E0
0FCFC0
07FF00
00FC00
ENDCHAR
STARTCHAR 00F4
ENCODING 244
SWIDTH 642 0
DWIDTH 25 0
BBX 22 30 2 0
BITMAP
007800
00FC00
01FE00
038700
070380
000000
000000
000000
000000
00FC00
07FF80
0FCFC0
1E01E0
3C00F0
780078
700038
600038
E0001C
E0001C
E0001C
E0001C
E0001C
E00038
700038
780078
3C00F0
1E01E0
0FCFC0
07FF00
00FC00
ENDCHAR
STARTCHAR 00F5
ENCODING 245
SWIDTH 642 0
DWIDTH 25 0
BBX 22 28 2 0
BITMAP
07F100
07FF80
067F80
000000
000000
000000
000000
00FC00
07FF80
0FCFC0
1E01E0
3C00F0
780078
700038
600038
E0001C
E0001C
E0001C
E0001C
E0001C
E00038
700038
780078
3C00F0
1E01E0
0FCFC0
07FF00
00FC00
ENDCHAR
STARTCHAR 00F6
ENCODING 246
SWIDTH 642 0
DWIDTH 25 0
BBX 22 30 2 0
BITMAP
038E00
038E00
038E00
038E00
038E00
000000
000000
000000
000000
01FC00
07FF00
0FDFC0
1E01E0
3800F0
780070
700038
600038
E0001C
E0001C
E0001C
E0001C
E0001C
E00038
700038
780070
3800F0
1E01E0
0FCFC0
07FF00
01FC00
ENDCHAR
STARTCHAR 00F7
ENCODING 247
SWIDTH 617 0
DWIDTH 24 0
BBX 19 20 2 0
BITMAP
00E000
00E000
00E000
00E000
00E000
000000
000000
000000
000000
000000
FFFFE0
FFFFE0
000000
000000
000000
00E000
00E000
00E000
00E000
00E000
ENDCHAR
STARTCHAR 00FA
ENCODING 250
SWIDTH 617 0
DWIDTH 24 0
BBX 19 30 2 1
BITMAP
000400
001E00
007C00
01F000
03E000
018000
000000
000000
000000
E000E0
E000E0
E000E0
E000E0
E000E0
E000E0
E000E0
E000E0
E000E0
E000E0
E000E0
E000E0
E000E0
E000E0
E001E0
7001E0
7003E0
3C07E0
1FBEE0
0FFCE0
03F0E0
ENDCHAR
STARTCHAR 00FC
ENCODING 252
SWIDTH 617 0
DWIDTH 24 0
BBX 19 30 2 0
BITMAP
071C00
071C00
071C00
071C00
071C00
000000
000000
000000
000000
E000E0
E000E0
E000E0
E000E0
E000E0
E000E0
E000E0
E000E0
E000E0
E000E0
E000E0
E000E0
E000E0
E000E0
E001E0
7001E0
7003E0
3C07E0
1FBEE0
0FFCE0
03F0E0
ENDCHAR
STARTCHAR 00FD
ENCODING 253
SWIDTH 540 0
DWIDTH 21 0
BBX 19 37 1 -6
BITMAP
000C00
001C00
007C00
01F000
03C000
018000
000000
000000
000000
E000E0
6000C0
7001C0
7001C0
380380
380380
180300
1C0700
1C0600
0E0E00
0E0E00
061C00
071C00
071800
03B800
03B000
01F000
01F000
01E000
00E000
00C000
01C000
018000
038000
038000
030000
070000
060000
ENDCHAR
STARTCHAR 0100
ENCODING 256
SWIDTH 745 0
DWIDTH 29 0
BBX 27 34 0 1
BITMAP
01FFF000
01FFF000
00000000
00000000
00000000
00000000
000E0000
001F0000
001F0000
003B8000
003B8000
00338000
0071C000
0071C000
00E0E000
00E0E000
01C07000
01C07000
01C07000
03803800
03803800
07001C00
07FFFC00
0FFFFE00
0E000E00
0C000E00
1C000700
1C000700
38000380
38000380
700001C0
700001C0
700001C0
E00000E0
ENDCHAR
STARTCHAR 0101
ENCODING 257
SWIDTH 694 0
DWIDTH 27 0
BBX 22 28 2 0
BITMAP
07FF80
07FF80
000000
000000
000000
000000
000000
00FC1C
07FF1C
0FCFDC
1E01FC
3800FC
78007C
70003C
E0003C
E0001C
E0001C
E0001C
E0001C
E0001C
E0003C
70003C
78007C
3800FC
1E01FC
0FCFDC
07FF1C
00FC1C
ENDCHAR
STARTCHAR 0102
ENCODING 258
SWIDTH 745 0
DWIDTH 29 0
BBX 27 35 0 0
BITMAP
01C07000
00E0E000
007FC000
003F8000
00000000
00000000
00000000
000E0000
001F0000
001F0000
003B8000
003B8000
00338000
0071C000
0071C000
00E0E000
00E0E000
01C07000
01C07000
01C07000
03803800
03803800
07001C00
07FFFC00
0FFFFE00
0E000E00
0C000E00
1C000700
1C000700
38000380
38000380
700001C0
700001C0
700001C0
E00000E0
ENDCHAR
STARTCHAR 0103
ENCODING 259
SWIDTH 694 0
DWIDTH 27 0
BBX 22 28 2 0
BITMAP
078380
03FF80
00FE00
000000
000000
000000
000000
00FC1C
07FF1C
0FCFDC
1E01FC
3800FC
78007C
70003C
E0003C
E0001C
E0001C
E0001C
E0001C
E0001C
E0003C
70003C
78007C
3800FC
1E01FC
0FCFDC
07FF1C
00FC1C
ENDCHAR
STARTCHAR 0104
ENCODING 260
SWIDTH 745 0
DWIDTH 29 0
BBX 28 35 1 -7
BITMAP
000E0000
001F0000
001F0000
003F0000
003B8000
00738000
0071C000
0071C000
00E0E000
00E0E000
01C0F000
01C07000
03807000
03803800
03003800
07001C00
07FFFC00
0FFFFE00
0E000E00
1C000E00
1C000700
18000700
38000380
38000380
700001C0
700001C0
E00001C0
E00000E0
000000C0
00000180
00000300
00000300
00000300
000001F0
000000F0
ENDCHAR
STARTCHAR 0105
ENCODING 261
SWIDTH 694 0
DWIDTH 27 0
BBX 22 28 2 -7
BITMAP
00FC1C
07FF1C
0FCFDC
1E01FC
3800FC
70007C
70003C
E0003C
E0001C
E0001C
E0001C
E0001C
E0001C
E0003C
70003C
78007C
3800FC
1E01FC
0FCFDC
07FF1C
01FC1C
000030
000060
0000C0
0000C0
0000C0
00007C
00003C
ENDCHAR
STARTCHAR 0106
ENCODING 262
SWIDTH 822 0
DWIDTH 32 0
BBX 28 36 2 0
BITMAP
00001000
00003000
0000F800
0003E000
000FC000
000F0000
00040000
00000000
001FE000
00FFFC00
03FFFE00
07C00F80
0F0003C0
1E0001E0
3C0000E0
38000000
70000000
70000000
E0000000
E0000000
E0000000
E0000000
E0000000
E0000000
E0000000
70000000
70000000
78000000
38000070
3C0000E0
1E0001C0
0F000780
07C00F00
03FFFE00
00FFF800
001FC000
ENDCHAR
STARTCHAR 0107
ENCODING 263
SWIDTH 642 0
DWIDTH 25 0
BBX 22 30 1 0
BITMAP
000200
000E00
001F00
007C00
01F000
01E000
008000
000000
000000
00FE00
03FF80
0FEFE0
1E00F0
3C0078
380038
70001C
700000
E00000
E00000
E00000
E00000
E00000
700000
700000
380038
3C0078
1E00F0
0FEFE0
03FF80
00FE00
ENDCHAR
STARTCHAR 010C
ENCODING 268
SWIDTH 822 0
DWIDTH 32 0
BBX 28 36 2 0
BITMAP
00783800
003C7000
001EE000
000FC000
00078000
00000000
00000000
00000000
001FE000
00FFFC00
03FFFE00
07C00F80
0F0003C0
1E0001E0
3C0000E0
38000000
70000000
70000000
E0000000
E0000000
E0000000
E0000000
E0000000
E0000000
E0000000
70000000
70000000
78000000
38000070
3C0000E0
1E0001C0
0F000780
07C00F00
03FFFE00
00FFF800
001FC000
ENDCHAR
STARTCHAR 010D
ENCODING 269
SWIDTH 642 0
DWIDTH 25 0
BBX 22 30 1 0
BITMAP
070380
038700
01DE00
00FC00
007800
000000
000000
000000
000000
00FE00
03FF80
0FEFE0
1E00F0
3C0078
380038
70001C
700000
E00000
E00000
E00000
E00000
E00000
700000
700000
380038
3C0078
1E00F0
0FEFE0
03FF80
00FE00
ENDCHAR
STARTCHAR 010E
ENCODING 270
SWIDTH 745 0
DWIDTH 29 0
BBX 24 36 3 0
BITMAP
1C0E00
0E1C00
077800
03F000
01E000
000000
000000
000000
FFF800
FFFF00
FFFFC0
E003E0
E000F0
E00078
E0003C
E0001C
E0000E
E0000E
E0000E
E00007
E00007
E00007
E00007
E00007
E00007
E00006
E0000E
E0000E
E0001C
E0003C
E00078
E000F0
E003E0
FFFFC0
FFFF00
FFF800
ENDCHAR
STARTCHAR 010F
ENCODING 271
SWIDTH 745 0
DWIDTH 29 0
BBX 29 28 1 0
BITMAP
00000E18
00000E38
00000E30
00000E70
00000E60
00000EE0
00000EE0
00FE0E00
03FF8E00
0FEFEE00
1E00FE00
3C007E00
38003E00
70001E00
70001E00
E0000E00
E0000E00
E0000E00
E0000E00
E0000E00
70001E00
70001E00
78003E00
3C007E00
1E00EE00
0FE7EE00
03FF8E00
00FE0E00
ENDCHAR
STARTCHAR 0110
ENCODING 272
SWIDTH 797 0
DWIDTH 31 0
BBX 27 28 1 0
BITMAP
1FFF0000
1FFFE000
1FFFF800
1C007C00
1C001E00
1C000F00
1C000780
1C000380
1C0001C0
1C0001C0
1C0000E0
1C0000E0
1C0000E0
FFFC00E0
FFFC00E0
1C0000E0
1C0000E0
1C0000E0
1C0001C0
1C0001C0
1C0003C0
1C000380
1C000700
1C001E00
1C007C00
1FFFF800
1FFFE000
1FFF0000
ENDCHAR
STARTCHAR 0111
ENCODING 273
SWIDTH 694 0
DWIDTH 27 0
BBX 25 28 1 0
BITMAP
00000E00
00000E00
00000E00
0001FF80
0001FF80
0001FF80
00000E00
00FE0E00
03FF8E00
0FEFEE00
1E00FE00
3C007E00
38003E00
70001E00
70001E00
E0000E00
E0000E00
E0000E00
E0000E00
E0000E00
70001E00
70001E00
78003E00
3C007E00
1E00EE00
0FE7EE00
03FF8E00
00FE0E00
ENDCHAR
STARTCHAR 0112
ENCODING 274
SWIDTH 540 0
DWIDTH 21 0
BBX 15 34 3 1
BITMAP
7FFC
7FFC
0000
0000
0000
0000
FFFE
FFFE
FFFE
E000
E000
E000
E000
E000
E000
E000
E000
E000
E000
FFFE
FFFE
E000
E000
E000
E000
E000
E000
E000
E000
E000
E000
FFFE
FFFE
FFFE
ENDCHAR
STARTCHAR 0113
ENCODING 275
SWIDTH 642 0
DWIDTH 25 0
BBX 22 28 1 0
BITMAP
07FF80
07FF80
000000
000000
000000
000000
000000
00FC00
07FF80
0FDFC0
1E01E0
380070
780038
700038
600018
E0001C
FFFFFC
FFFFFC
E00000
E00000
700000
700038
780070
3C0070
1E01E0
0FDFC0
07FF00
00FC00
ENDCHAR
STARTCHAR 0116
ENCODING 278
SWIDTH 540 0
DWIDTH 21 0
BBX 15 36 3 0
BITMAP
0380
0380
0380
0380
0380
0000
0000
0000
FFFE
FFFE
FFFE
E000
E000
E000
E000
E000
E000
E000
E000
E000
E000
FFFE
FFFE
E000
E000
E000
E000
E000
E000
E000
E000
E000
E000
FFFE
FFFE
FFFE
ENDCHAR
STARTCHAR 0117
ENCODING 279
SWIDTH 642 0
DWIDTH 25 0
BBX 22 30 1 0
BITMAP
003800
003800
003800
003800
003800
000000
000000
000000
000000
00FE00
03FF80
0FEFC0
1E01F0
3C0070
780038
700018
60001C
E0001C
FFFFFC
FFFFFC
E00000
E00000
700000
700038
380038
3C0070
1E00E0
0FEFC0
03FF80
00FE00
ENDCHAR
STARTCHAR 0118
ENCODING 280
SWIDTH 540 0
DWIDTH 21 0
BBX 15 35 3 -7
BITMAP
FFFE
FFFE
FFFE
E000
E000
E000
E000
E000
E000
E000
E000
E000
E000
FFFE
FFFE
E000
E000
E000
E000
E000
E000
E000
E000
E000
E000
FFFE
FFFE
FFFE
0018
0030
0060
0060
0060
003E
001E
ENDCHAR
STARTCHAR 0119
ENCODING 281
SWIDTH 642 0
DWIDTH 25 0
BBX 22 28 1 -7
BITMAP
00FC00
07FF80
0FEFC0
1E01E0
380070
780038
700038
60001C
E0001C
FFFFFC
FFFFFC
E00000
E00000
700000
700038
380038
3C0070
1E01E0
0FCFC0
07FF80
00FC00
001800
003000
006000
006000
006000
003E00
001E00
ENDCHAR
STARTCHAR 011A
ENCODING 282
SWIDTH 540 0
DWIDTH 21 0
BBX 15 36 3 0
BITMAP
783C
3C70
1EE0
0FC0
0380
0000
0000
0000
FFFE
FFFE
FFFE
E000
E000
E000
E000
E000
E000
E000
E000
E000
E000
FFFE
FFFE
E000
E000
E000
E000
E000
E000
E000
E000
E000
E000
FFFE
FFFE
FFFE
ENDCHAR
STARTCHAR 011B
ENCODING 283
SWIDTH 642 0
DWIDTH 25 0
BBX 22 30 1 0
BITMAP
070380
038F00
01DE00
00FC00
007800
000000
000000
000000
000000
00FC00
07FF80
0FDFC0
1E01E0
380070
780038
700038
600018
E0001C
FFFFFC
FFFFFC
E00000
E00000
700000
700038
780070
3C0070
1E01E0
0FDFC0
07FF00
00FC00
ENDCHAR
STARTCHAR 0122
ENCODING 290
SWIDTH 874 0
DWIDTH 34 0
BBX 30 37 1 -9
BITMAP
001FE000
007FFC00
01FFFF00
07C00F80
0F0003C0
1E0001E0
1C0000F0
38000078
78000000
70000000
70000000
E0000000
E0000000
E0000000
E0000000
E01FFFFC
E01FFFFC
7000001C
70000038
78000038
38000078
1C0000F0
1E0001E0
0F8003C0
07E00F80
01FFFF00
007FFC00
001FE000
00000000
00000000
00000000
00038000
00030000
00070000
00060000
000E0000
000C0000
ENDCHAR
STARTCHAR 0123
ENCODING 291
SWIDTH 668 0
DWIDTH 26 0
BBX 22 38 1 -7
BITMAP
000C00
001C00
001800
003800
003000
003000
007000
000000
000000
000000
00FC1C
03FF1C
0FCFDC
1E01FC
3C00FC
38007C
70003C
70001C
E0001C
E0001C
E0001C
E0001C
E0001C
70001C
70003C
78007C
3C007C
1E01FC
0FCFDC
07FF1C
00FC1C
70001C
380038
3C0078
1E00F0
0FEFE0
03FFC0
00FE00
ENDCHAR
STARTCHAR 012A
ENCODING 298
SWIDTH 231 0
DWIDTH 9 0
BBX 11 34 -1 1
BITMAP
FFE0
FFE0
0000
0000
0000
0000
0E00
0E00
0E00
0E00
0E00
0E00
0E00
0E00
0E00
0E00
0E00
0E00
0E00
0E00
0E00
0E00
0E00
0E00
0E00
0E00
0E00
0E00
0E00
0E00
0E00
0E00
0E00
0E00
ENDCHAR
STARTCHAR 012B
ENCODING 299
SWIDTH 205 0
DWIDTH 8 0
BBX 11 28 -2 0
BITMAP
FFE0
FFE0
0000
0000
0000
0000
0000
0E00
0E00
0E00
0E00
0E00
0E00
0E00
0E00
0E00
0E00
0E00
0E00
0E00
0E00
0E00
0E00
0E00
0E00
0E00
0E00
0E00
ENDCHAR
STARTCHAR 012E
ENCODING 302
SWIDTH 231 0
DWIDTH 9 0
BBX 6 35 1 -7
BITMAP
38
38
38
38
38
38
38
38
38
38
38
38
38
38
38
38
38
38
38
38
38
38
38
38
38
38
38
38
30
60
C0
C0
C0
7C
3C
ENDCHAR
STARTCHAR 012F
ENCODING 303
SWIDTH 205 0
DWIDTH 8 0
BBX 6 35 0 -7
BITMAP
38
38
38
38
38
00
00
38
38
38
38
38
38
38
38
38
38
38
38
38
38
38
38
38
38
38
38
38
30
60
C0
C0
C0
7C
3C
ENDCHAR
STARTCHAR 0136
ENCODING 310
SWIDTH 591 0
DWIDTH 23 0
BBX 19 35 3 -7
BITMAP
E000E0
E001C0
E003C0
E00780
E00F00
E00E00
E01C00
E03800
E07800
E0F000
E0E000
E1C000
E38000
E78000
EF8000
EFC000
FDE000
F8E000
F07000
F07800
E03C00
E01E00
E00E00
E00700
E00780
E003C0
E001C0
E000E0
000000
01C000
018000
038000
030000
070000
060000
ENDCHAR
STARTCHAR 0137
ENCODING 311
SWIDTH 514 0
DWIDTH 20 0
BBX 16 35 3 -7
BITMAP
E000
E000
E000
E000
E000
E000
E000
E00F
E00E
E01C
E038
E078
E0F0
E0E0
E1C0
E380
E780
E700
EF80
FF80
FDC0
F8E0
F0F0
E078
E03C
E01C
E00E
E007
0000
0300
0700
0600
0E00
0C00
1C00
ENDCHAR
STARTCHAR 0139
ENCODING 313
SWIDTH 462 0
DWIDTH 18 0
BBX 15 36 3 1
BITMAP
00C0
01C0
07C0
1F00
3C00
3800
0000
0000
E000
E000
E000
E000
E000
E000
E000
E000
E000
E000
E000
E000
E000
E000
E000
E000
E000
E000
E000
E000
E000
E000
E000
E000
E000
FFFE
FFFE
FFFE
ENDCHAR
STARTCHAR 013A
ENCODING 314
SWIDTH 205 0
DWIDTH 8 0
BBX 8 36 1 1
BITMAP
03
0F
1F
7C
F0
C0
00
00
70
70
70
70
70
70
70
70
70
70
70
70
70
70
70
70
70
70
70
70
70
70
70
70
70
70
70
70
ENDCHAR
STARTCHAR 013B
ENCODING 315
SWIDTH 462 0
DWIDTH 18 0
BBX 15 37 3 -9
BITMAP
E000
E000
E000
E000
E000
E000
E000
E000
E000
E000
E000
E000
E000
E000
E000
E000
E000
E000
E000
E000
E000
E000
E000
E000
E000
FFFE
FFFE
FFFE
0000
0000
0000
0300
0700
0600
0E00
0C00
1C00
ENDCHAR
STARTCHAR 013C
ENCODING 316
SWIDTH 205 0
DWIDTH 8 0
BBX 5 37 0 -9
BITMAP
38
38
38
38
38
38
38
38
38
38
38
38
38
38
38
38
38
38
38
38
38
38
38
38
38
38
38
38
00
00
00
38
38
70
60
E0
C0
ENDCHAR
STARTCHAR 013D
ENCODING 317
SWIDTH 462 0
DWIDTH 18 0
BBX 15 28 3 0
BITMAP
E00C
E01C
E018
E038
E030
E070
E060
E000
E000
E000
E000
E000
E000
E000
E000
E000
E000
E000
E000
E000
E000
E000
E000
E000
E000
FFFE
FFFE
FFFE
ENDCHAR
STARTCHAR 013E
ENCODING 318
SWIDTH 257 0
DWIDTH 10 0
BBX 9 28 2 0
BITMAP
E180
E380
E300
E300
E700
E600
EE00
E000
E000
E000
E000
E000
E000
E000
E000
E000
E000
E000
E000
E000
E000
E000
E000
E000
E000
E000
E000
E000
ENDCHAR
STARTCHAR 0141
ENCODING 321
SWIDTH 514 0
DWIDTH 20 0
BBX 18 28 2 0
BITMAP
1C0000
1C0000
1C0000
1C0000
1C0000
1C0000
1C0000
1C1000
1C3000
1CF000
1DE000
1FC000
1F0000
1E0000
7C0000
FC0000
FC0000
9C0000
1C0000
1C0000
1C0000
1C0000
1C0000
1C0000
1C0000
1FFFC0
1FFFC0
1FFFC0
ENDCHAR
STARTCHAR 0142
ENCODING 322
SWIDTH 308 0
DWIDTH 12 0
BBX 9 28 1 0
BITMAP
1C00
1C00
1C00
1C00
1C00
1C00
1C00
1C00
1C00
1C80
1F80
1F80
1E00
3C00
7C00
FC00
DC00
1C00
1C00
1C00
1C00
1C00
1C00
1C00
1C00
1C00
1C00
1C00
ENDCHAR
STARTCHAR 0143
ENCODING 323
SWIDTH 745 0
DWIDTH 29 0
BBX 22 36 3 1
BITMAP
000200
000F00
001F00
007C00
00F000
00E000
000000
000000
F0001C
F8001C
F8001C
FC001C
EE001C
EE001C
E7001C
E3801C
E3801C
E1C01C
E0E01C
E0E01C
E0701C
E0381C
E0381C
E01C1C
E00E1C
E00E1C
E0071C
E0039C
E0039C
E001DC
E000FC
E000FC
E0007C
E0007C
E0003C
E0001C
ENDCHAR
STARTCHAR 0144
ENCODING 324
SWIDTH 617 0
DWIDTH 24 0
BBX 19 29 2 1
BITMAP
000C00
003E00
00F800
03F000
01C000
010000
000000
000000
E1F800
E7FE00
EFBF00
FC0780
F803C0
F001C0
F000E0
E000E0
E000E0
E000E0
E000E0
E000E0
E000E0
E000E0
E000E0
E000E0
E000E0
E000E0
E000E0
E000E0
E000E0
ENDCHAR
STARTCHAR 0145
ENCODING 325
SWIDTH 745 0
DWIDTH 29 0
BBX 22 35 3 -7
BITMAP
F0001C
F8001C
F8001C
FC001C
EE001C
EE001C
E7001C
E3801C
E3801C
E1C01C
E0E01C
E0E01C
E0701C
E0381C
E0381C
E01C1C
E00E1C
E00E1C
E0071C
E0039C
E0039C
E001DC
E000FC
E000FC
E0007C
E0007C
E0003C
E0001C
000000
003000
007000
006000
00E000
00C000
01C000
ENDCHAR
STARTCHAR 0146
ENCODING 326
SWIDTH 617 0
DWIDTH 24 0
BBX 19 28 2 -7
BITMAP
E1F800
E7FE00
EFBF00
FC0780
F803C0
F001C0
F000E0
E000E0
E000E0
E000E0
E000E0
E000E0
E000E0
E000E0
E000E0
E000E0
E000E0
E000E0
E000E0
E000E0
E000E0
000000
00E000
00C000
01C000
018000
038000
030000
ENDCHAR
STARTCHAR 0147
ENCODING 327
SWIDTH 745 0
DWIDTH 29 0
BBX 22 36 3 0
BITMAP
070380
038F00
01DE00
00FC00
007800
000000
000000
000000
F0001C
F8001C
F8001C
FC001C
EE001C
EE001C
E7001C
E3801C
E3801C
E1C01C
E0E01C
E0E01C
E0701C
E0381C
E0381C
E01C1C
E00E1C
E00E1C
E0071C
E0039C
E0039C
E001DC
E000FC
E000FC
E0007C
E0007C
E0003C
E0001C
ENDCHAR
STARTCHAR 0148
ENCODING 328
SWIDTH 617 0
DWIDTH 24 0
BBX 19 30 2 0
BITMAP
1E0F00
0F1E00
07B800
03F000
00E000
000000
000000
000000
000000
E1F800
E7FE00
EFBF00
FC0780
F803C0
F001C0
F000E0
E000E0
E000E0
E000E0
E000E0
E000E0
E000E0
E000E0
E000E0
E000E0
E000E0
E000E0
E000E0
E000E0
E000E0
ENDCHAR
STARTCHAR 014C
ENCODING 332
SWIDTH 874 0
DWIDTH 34 0
BBX 30 34 2 1
BITMAP
00FFF800
00FFF800
00000000
00000000
00000000
00000000
001FE000
00FFFC00
01FFFE00
07C00F80
0F0003C0
1E0001E0
3C0000F0
38000070
70000078
70000038
60000038
E000001C
E000001C
E000001C
E000001C
E000001C
E000001C
E0000038
70000038
70000038
38000070
3C0000F0
1E0001E0
0F0003C0
07C00F80
03FFFE00
00FFFC00
001FE000
ENDCHAR
STARTCHAR 014D
ENCODING 333
SWIDTH 642 0
DWIDTH 25 0
BBX 22 28 2 0
BITMAP
07FF80
07FF80
000000
000000
000000
000000
000000
00FC00
07FF80
0FCFC0
1E01E0
3C00F0
780078
700038
600038
E0001C
E0001C
E0001C
E0001C
E0001C
E00038
700038
780078
3C00F0
1E01E0
0FCFC0
07FF00
00FC00
ENDCHAR
STARTCHAR 0150
ENCODING 336
SWIDTH 874 0
DWIDTH 34 0
BBX 30 35 2 1
BITMAP
0000C380
0001C780
00078F00
000F1C00
001E3800
00083000
00000000
001FE000
00FFFC00
01FFFE00
07C00F80
0F0003C0
1E0001E0
3C0000F0
38000070
70000078
70000038
60000038
E000001C
E000001C
E000001C
E000001C
E000001C
E000001C
E0000038
70000038
70000038
38000070
3C0000F0
1E0001E0
0F0003C0
07C00F80
03FFFE00
00FFFC00
001FE000
ENDCHAR
STARTCHAR 0151
ENCODING 337
SWIDTH 642 0
DWIDTH 25 0
BBX 22 29 2 1
BITMAP
001870
0038F0
0071E0
01E3C0
03C700
018600
000000
000000
00FC00
07FF80
0FCFC0
1E01E0
3C00F0
780078
700038
600038
E0001C
E0001C
E0001C
E0001C
E0001C
E00038
700038
780078
3C00F0
1E01E0
0FCFC0
07FF00
00FC00
ENDCHAR
STARTCHAR 0154
ENCODING 340
SWIDTH 617 0
DWIDTH 24 0
BBX 19 36 3 1
BITMAP
001000
007800
00F800
03E000
078000
070000
000000
000000
FFF000
FFFE00
FFFF00
E00780
E003C0
E001C0
E000E0
E000E0
E000E0
E000E0
E000E0
E001C0
E001C0
E003C0
E00F80
E3FF00
E1FC00
E1E000
E0F000
E07000
E07800
E03C00
E01C00
E00E00
E00F00
E00780
E00380
E001C0
ENDCHAR
STARTCHAR 0155
ENCODING 341
SWIDTH 308 0
DWIDTH 12 0
BBX 10 29 2 1
BITMAP
01C0
07C0
0F80
3E00
3800
0000
0000
0000
E380
EF80
EF80
FC00
F800
F000
E000
E000
E000
E000
E000
E000
E000
E000
E000
E000
E000
E000
E000
E000
E000
ENDCHAR
STARTCHAR 0156
ENCODING 342
SWIDTH 617 0
DWIDTH 24 0
BBX 19 35 3 -7
BITMAP
FFF000
FFFE00
FFFF00
E00780
E003C0
E001C0
E000E0
E000E0
E000E0
E000E0
E000E0
E001C0
E001C0
E003C0
E00F80
E3FF00
E1FC00
E1E000
E0F000
E07000
E07800
E03C00
E01C00
E00E00
E00F00
E00780
E00380
E001C0
000000
00C000
01C000
018000
038000
030000
070000
ENDCHAR
STARTCHAR 0157
ENCODING 343
SWIDTH 308 0
DWIDTH 12 0
BBX 11 30 0 -9
BITMAP
38E0
3BE0
3BE0
3F00
3E00
3C00
3800
3800
3800
3800
3800
3800
3800
3800
3800
3800
3800
3800
3800
3800
3800
0000
0000
0000
1800
3800
3000
7000
6000
E000
ENDCHAR
STARTCHAR 0158
ENCODING 344
SWIDTH 617 0
DWIDTH 24 0
BBX 19 36 3 0
BITMAP
3C1E00
0E3C00
077800
03E000
01C000
000000
000000
000000
FFF000
FFFE00
FFFF00
E00780
E003C0
E001C0
E000E0
E000E0
E000E0
E000E0
E000E0
E001C0
E001C0
E003C0
E00F80
E3FF00
E1FC00
E1E000
E0F000
E07000
E07800
E03C00
E01C00
E00E00
E00F00
E00780
E00380
E001C0
ENDCHAR
STARTCHAR 0159
ENCODING 345
SWIDTH 308 0
DWIDTH 12 0
BBX 13 30 0 0
BITMAP
F078
78F0
3DE0
0F80
0700
0000
0000
0000
0000
38E0
3BE0
3BE0
3F00
3E00
3C00
3800
3800
3800
3800
3800
3800
3800
3800
3800
3800
3800
3800
3800
3800
3800
ENDCHAR
STARTCHAR 015A
ENCODING 346
SWIDTH 488 0
DWIDTH 19 0
BBX 17 35 1 1
BITMAP
003000
00F800
01F000
07C000
070000
020000
000000
03E000
0FF800
1FFC00
3C1E00
780F00
700700
700700
700000
700000
780000
3C0000
1F8000
0FF000
03FC00
007E00
001F00
000700
000780
000380
000380
E00380
E00380
700700
700700
380E00
3FFE00
0FF800
03E000
ENDCHAR
STARTCHAR 015B
ENCODING 347
SWIDTH 385 0
DWIDTH 15 0
BBX 13 30 1 0
BITMAP
0040
00C0
03E0
0F80
1F00
1C00
0800
0000
0000
0F80
1FC0
3DE0
7070
7070
7070
7000
7800
3E00
1F80
07E0
01F0
0070
0038
0038
E038
E038
7070
7DF0
3FE0
0F80
ENDCHAR
STARTCHAR 0160
ENCODING 352
SWIDTH 488 0
DWIDTH 19 0
BBX 17 36 1 0
BITMAP
3C1C00
1E3800
077000
03E000
01C000
000000
000000
000000
03E000
0FF800
1FFC00
3C1E00
780F00
700700
700700
700000
700000
780000
3C0000
1F8000
0FF000
03FC00
007E00
001F00
000700
000780
000380
000380
E00380
E00380
700700
700700
380E00
3FFE00
0FF800
03E000
ENDCHAR
STARTCHAR 0161
ENCODING 353
SWIDTH 385 0
DWIDTH 15 0
BBX 13 30 1 0
BITMAP
F070
78E0
3DC0
0F80
0700
0000
0000
0000
0000
0F80
1FC0
3DE0
7070
7070
7070
7000
7800
3E00
1F80
07E0
01F0
0070
0038
0038
E038
E038
7070
7DF0
3FE0
0F80
ENDCHAR
STARTCHAR 0162
ENCODING 354
SWIDTH 437 0
DWIDTH 17 0
BBX 15 37 1 -9
BITMAP
FFFE
FFFE
FFFE
0380
0380
0380
0380
0380
0380
0380
0380
0380
0380
0380
0380
0380
0380
0380
0380
0380
0380
0380
0380
0380
0380
0380
0380
0380
0000
0000
0000
0380
0300
0700
0600
0E00
0C00
ENDCHAR
STARTCHAR 0163
ENCODING 355
SWIDTH 334 0
DWIDTH 13 0
BBX 12 37 1 -9
BITMAP
0E00
0E00
0E00
0E00
0E00
0E00
0E00
FFF0
FFF0
0E00
0E00
0E00
0E00
0E00
0E00
0E00
0E00
0E00
0E00
0E00
0E00
0E00
0E00
0E00
0E00
0E00
0E00
0E00
0000
0000
0000
0E00
0E00
1C00
1C00
3800
3000
ENDCHAR
STARTCHAR 0164
ENCODING 356
SWIDTH 437 0
DWIDTH 17 0
BBX 15 36 1 0
BITMAP
7838
3C70
1EE0
0FC0
0780
0000
0000
0000
FFFE
FFFE
FFFE
0380
0380
0380
0380
0380
0380
0380
0380
0380
0380
0380
0380
0380
0380
0380
0380
0380
0380
0380
0380
0380
0380
0380
0380
0380
ENDCHAR
STARTCHAR 0165
ENCODING 357
SWIDTH 360 0
DWIDTH 14 0
BBX 14 30 1 0
BITMAP
000C
001C
0E18
0E38
0E30
0E70
0E70
0E00
0E00
FFF0
FFF0
0E00
0E00
0E00
0E00
0E00
0E00
0E00
0E00
0E00
0E00
0E00
0E00
0E00
0E00
0E00
0E00
0E00
0E00
0E00
ENDCHAR
STARTCHAR 016A
ENCODING 362
SWIDTH 642 0
DWIDTH 25 0
BBX 19 34 3 1
BITMAP
1FFF00
1FFF00
000000
000000
000000
000000
E000E0
E000E0
E000E0
E000E0
E000E0
E000E0
E000E0
E000E0
E000E0
E000E0
E000E0
E000E0
E000E0
E000E0
E000E0
E000E0
E000E0
E000E0
E000E0
E000E0
E000E0
7000C0
7001C0
7803C0
3C0780
1FFF00
0FFE00
03F800
ENDCHAR
STARTCHAR 016B
ENCODING 363
SWIDTH 617 0
DWIDTH 24 0
BBX 19 28 2 0
BITMAP
1FFF00
1FFF00
000000
000000
000000
000000
000000
E000E0
E000E0
E000E0
E000E0
E000E0
E000E0
E000E0
E000E0
E000E0
E000E0
E000E0
E000E0
E000E0
E000E0
E001E0
7001E0
7003E0
3C07E0
1FBEE0
0FFCE0
03F0E0
ENDCHAR
STARTCHAR 016E
ENCODING 366
SWIDTH 642 0
DWIDTH 25 0
BBX 19 37 3 0
BITMAP
00E000
01F000
03B800
031800
031800
039800
03F800
01F000
00E000
E000E0
E000E0
E000E0
E000E0
E000E0
E000E0
E000E0
E000E0
E000E0
E000E0
E000E0
E000E0
E000E0
E000E0
E000E0
E000E0
E000E0
E000E0
E000E0
E000E0
E000E0
7000C0
7001C0
7803C0
3C0780
1FFF00
0FFE00
03F800
ENDCHAR
STARTCHAR 016F
ENCODING 367
SWIDTH 617 0
DWIDTH 24 0
BBX 19 31 2 1
BITMAP
00F000
01F800
039C00
030C00
030C00
039C00
01F800
00F000
000000
000000
E000E0
E000E0
E000E0
E000E0
E000E0
E000E0
E000E0
E000E0
E000E0
E000E0
E000E0
E000E0
E000E0
E000E0
E000E0
7001E0
7803E0
3C07E0
1FBEE0
0FFCE0
03F0E0
ENDCHAR
STARTCHAR 0170
ENCODING 368
SWIDTH 642 0
DWIDTH 25 0
BBX 19 36 3 1
BITMAP
006080
00E1C0
01E380
038700
071E00
0E1C00
040800
000000
E000E0
E000E0
E000E0
E000E0
E000E0
E000E0
E000E0
E000E0
E000E0
E000E0
E000E0
E000E0
E000E0
E000E0
E000E0
E000E0
E000E0
E000E0
E000E0
E000E0
E000E0
7000C0
7001C0
7803C0
3C0780
1FFF00
0FFE00
03F800
ENDCHAR
STARTCHAR 0171
ENCODING 369
SWIDTH 617 0
DWIDTH 24 0
BBX 19 30 2 1
BITMAP
0060C0
00F1E0
01E3C0
038F00
071E00
0E1C00
040000
000000
000000
E000E0
E000E0
E000E0
E000E0
E000E0
E000E0
E000E0
E000E0
E000E0
E000E0
E000E0
E000E0
E000E0
E000E0
E001E0
7001E0
7003E0
3C07E0
1FBEE0
0FFCE0
03F0E0
ENDCHAR
STARTCHAR 0172
ENCODING 370
SWIDTH 642 0
DWIDTH 25 0
BBX 19 35 3 -7
BITMAP
E000E0
E000E0
E000E0
E000E0
E000E0
E000E0
E000E0
E000E0
E000E0
E000E0
E000E0
E000E0
E000E0
E000E0
E000E0
E000E0
E000E0
E000E0
E000E0
E000E0
E000E0
7001C0
7001C0
7803C0
3C0780
1FFF00
0FFE00
03F800
006000
00C000
018000
018000
018000
00F800
007800
ENDCHAR
STARTCHAR 0173
ENCODING 371
SWIDTH 617 0
DWIDTH 24 0
BBX 19 28 2 -7
BITMAP
E000E0
E000E0
E000E0
E000E0
E000E0
E000E0
E000E0
E000E0
E000E0
E000E0
E000E0
E000E0
E000E0
E000E0
E001E0
7001E0
7003E0
3C07E0
1FBEE0
0FFCE0
03F0E0
0001C0
000300
000600
000600
000600
0003E0
0001E0
ENDCHAR
STARTCHAR 0179
ENCODING 377
SWIDTH 488 0
DWIDTH 19 0
BBX 17 36 0 1
BITMAP
001000
007800
01F800
03E000
078000
060000
000000
000000
FFFF80
FFFF80
FFFF80
000700
000F00
000E00
001E00
001C00
003800
007800
007000
00F000
00E000
01C000
03C000
038000
078000
070000
0E0000
0E0000
1C0000
380000
380000
700000
700000
FFFF80
FFFF80
FFFF80
ENDCHAR
STARTCHAR 017A
ENCODING 378
SWIDTH 437 0
DWIDTH 17 0
BBX 15 30 0 1
BITMAP
0020
00F0
03E0
0FC0
0F00
0C00
0000
0000
0000
FFFC
FFFC
001C
003C
0038
0070
00F0
00E0
01C0
0380
0380
0700
0E00
0E00
1C00
3800
7800
7000
E000
FFFE
FFFE
ENDCHAR
STARTCHAR 017B
ENCODING 379
SWIDTH 488 0
DWIDTH 19 0
BBX 17 36 1 0
BITMAP
01C000
01C000
01C000
01C000
01C000
000000
000000
000000
FFFF80
FFFF80
FFFF80
000700
000F00
000E00
001C00
001C00
003800
007800
007000
00E000
00E000
01C000
03C000
038000
070000
070000
0E0000
1E0000
1C0000
380000
380000
700000
E00000
FFFF80
FFFF80
FFFF80
ENDCHAR
STARTCHAR 017C
ENCODING 380
SWIDTH 437 0
DWIDTH 17 0
BBX 15 30 1 0
BITMAP
0380
0380
0380
0380
0380
0000
0000
0000
0000
FFFC
FFFC
001C
003C
0038
0070
00F0
00E0
01C0
0380
0780
0700
0E00
1E00
1C00
3800
7000
7000
E000
FFFE
FFFE
ENDCHAR
STARTCHAR 017D
ENCODING 381
SWIDTH 488 0
DWIDTH 19 0
BBX 17 36 0 0
BITMAP
3C1C00
1E3800
0F7000
07E000
01C000
000000
000000
000000
FFFF80
FFFF80
FFFF80
000700
000F00
000E00
001E00
001C00
003800
007800
007000
00F000
00E000
01C000
03C000
038000
078000
070000
0E0000
0E0000
1C0000
380000
380000
700000
700000
FFFF80
FFFF80
FFFF80
ENDCHAR
STARTCHAR 017E
ENCODING 382
SWIDTH 437 0
DWIDTH 17 0
BBX 15 30 0 0
BITMAP
7838
3C70
1EE0
0FC0
0380
0000
0000
0000
0000
FFFC
FFFC
001C
003C
0038
0070
00F0
00E0
01C0
0380
0380
0700
0E00
0E00
1C00
3800
7800
7000
E000
FFFE
FFFE
ENDCHAR
STARTCHAR 0218
ENCODING 536
SWIDTH 488 0
DWIDTH 19 0
BBX 17 37 1 -9
BITMAP
03E000
0FF800
1FFC00
3C1E00
780F00
700700
700700
700000
700000
780000
3C0000
1F8000
0FF000
03FC00
007E00
001F00
000700
000780
000380
000380
E00380
E00380
700700
700700
380E00
3FFE00
0FF800
03E000
000000
000000
000000
01C000
018000
018000
030000
030000
060000
ENDCHAR
STARTCHAR 0219
ENCODING 537
SWIDTH 385 0
DWIDTH 15 0
BBX 13 30 1 -9
BITMAP
0F80
1FC0
3DE0
7070
7070
7070
7000
7800
3E00
1F80
07E0
01F0
0070
0038
0038
E038
E038
7070
7DF0
3FE0
0F80
0000
0000
0000
0300
0600
0600
0E00
0C00
1C00
ENDCHAR
STARTCHAR 021A
ENCODING 538
SWIDTH 437 0
DWIDTH 17 0
BBX 15 37 1 -9
BITMAP
FFFE
FFFE
FFFE
0380
0380
0380
0380
0380
0380
0380
0380
0380
0380
0380
0380
0380
0380
0380
0380
0380
0380
0380
0380
0380
0380
0380
0380
0380
0000
0000
0000
0380
0300
0700
0600
0E00
0C00
ENDCHAR
STARTCHAR 021B
ENCODING 539
SWIDTH 334 0
DWIDTH 13 0
BBX 12 37 1 -9
BITMAP
0E00
0E00
0E00
0E00
0E00
0E00
0E00
FFF0
FFF0
0E00
0E00
0E00
0E00
0E00
0E00
0E00
0E00
0E00
0E00
0E00
0E00
0E00
0E00
0E00
0E00
0E00
0E00
0E00
0000
0000
0000
0E00
0E00
1C00
1C00
3800
3000
ENDCHAR
STARTCHAR 02C7
ENCODING 711
SWIDTH 514 0
DWIDTH 20 0
BBX 12 5 4 25
BITMAP
E070
70E0
3DC0
1F80
0F00
ENDCHAR
STARTCHAR 02D8
ENCODING 728
SWIDTH 462 0
DWIDTH 18 0
BBX 13 3 2 25
BITMAP
F078
7FF0
1FC0
ENDCHAR
STARTCHAR 02D9
ENCODING 729
SWIDTH 231 0
DWIDTH 9 0
BBX 3 5 3 25
BITMAP
E0
E0
E0
E0
E0
ENDCHAR
STARTCHAR 02DB
ENCODING 731
SWIDTH 308 0
DWIDTH 12 0
BBX 6 7 3 -6
BITMAP
30
60
C0
C0
C0
7C
3C
ENDCHAR
STARTCHAR 02DD
ENCODING 733
SWIDTH 540 0
DWIDTH 21 0
BBX 14 7 4 24
BITMAP
0608
0E1C
1C78
38F0
71E0
E180
4000
ENDCHAR
STARTCHAR 0394
ENCODING 916
SWIDTH 617 0
DWIDTH 24 0
BBX 23 26 0 1
BITMAP
000800
001800
001800
003C00
003C00
007E00
007E00
005E00
00CF00
008F00
018780
010780
0307C0
0203C0
0603C0
0601E0
0C01E0
0C00F0
1800F0
1800F0
100078
300078
20003C
60003C
7FFFFC
FFFFFE
ENDCHAR
STARTCHAR 03BC
ENCODING 956
SWIDTH 617 0
DWIDTH 24 0
BBX 17 28 3 -7
BITMAP
E00380
E00380
E00380
E00380
E00380
E00380
E00380
E00380
E00380
E00380
E00380
E00380
E00380
E00380
E00380
F00780
F00780
F80F80
FF7F80
EFFB80
E3E380
E00000
E00000
E00000
E00000
E00000
E00000
E00000
ENDCHAR
STARTCHAR 2013
ENCODING 8211
SWIDTH 488 0
DWIDTH 19 0
BBX 16 2 1 9
BITMAP
FFFF
FFFF
ENDCHAR
STARTCHAR 2014
ENCODING 8212
SWIDTH 1002 0
DWIDTH 39 0
BBX 35 2 1 9
BITMAP
FFFFFFFFE0
FFFFFFFFE0
ENDCHAR
STARTCHAR 2018
ENCODING 8216
SWIDTH 360 0
DWIDTH 14 0
BBX 6 7 4 20
BITMAP
E0
60
70
30
38
38
1C
ENDCHAR
STARTCHAR 2019
ENCODING 8217
SWIDTH 360 0
DWIDTH 14 0
BBX 6 7 4 20
BITMAP
1C
18
38
30
70
70
E0
ENDCHAR
STARTCHAR 201A
ENCODING 8218
SWIDTH 360 0
DWIDTH 14 0
BBX 6 7 3 -3
BITMAP
1C
38
38
30
70
60
E0
ENDCHAR
STARTCHAR 201C
ENCODING 8220
SWIDTH 514 0
DWIDTH 20 0
BBX 12 7 4 20
BITMAP
E380
7380
71C0
31C0
38E0
18E0
1C70
ENDCHAR
STARTCHAR 201D
ENCODING 8221
SWIDTH 488 0
DWIDTH 19 0
BBX 11 7 5 20
BITMAP
38E0
39C0
71C0
7180
E380
E300
C700
ENDCHAR
STARTCHAR 201E
ENCODING 8222
SWIDTH 514 0
DWIDTH 20 0
BBX 12 7 3 -3
BITMAP
1C70
1CE0
38E0
39C0
71C0
7380
E380
ENDCHAR
STARTCHAR 2020
ENCODING 8224
SWIDTH 565 0
DWIDTH 22 0
BBX 17 33 2 -6
BITMAP
01C000
01C000
01C000
01C000
01C000
01C000
01C000
01C000
FFFF80
FFFF80
01C000
01C000
01C000
01C000
01C000
01C000
01C000
01C000
01C000
01C000
01C000
01C000
01C000
01C000
01C000
01C000
01C000
01C000
01C000
01C000
01C000
01C000
01C000
ENDCHAR
STARTCHAR 2021
ENCODING 8225
SWIDTH 565 0
DWIDTH 22 0
BBX 17 33 2 -5
BITMAP
01C000
01C000
01C000
01C000
01C000
01C000
01C000
01C000
FFFF80
FFFF80
01C000
01C000
01C000
01C000
01C000
01C000
01C000
01C000
01C000
01C000
01C000
01C000
01C000
FFFF80
FFFF80
01C000
01C000
01C000
01C000
01C000
01C000
01C000
01C000
ENDCHAR
STARTCHAR 2022
ENCODING 8226
SWIDTH 617 0
DWIDTH 24 0
BBX 12 12 6 9
BITMAP
0F80
3FC0
7FE0
7FF0
FFF0
FFF0
FFF0
FFF0
7FE0
7FE0
3FC0
0F00
ENDCHAR
STARTCHAR 2026
ENCODING 8230
SWIDTH 1002 0
DWIDTH 39 0
BBX 28 5 5 0
BITMAP
E0070070
E0070070
E0070070
E0070070
E0070070
ENDCHAR
STARTCHAR 2030
ENCODING 8240
SWIDTH 1182 0
DWIDTH 46 0
BBX 43 28 1 0
BITMAP
0FC00E000000
1FF00C000000
38781C000000
703818000000
E01C30000000
E01C30000000
E01C60000000
E01CE0000000
E01CC0000000
7039C0000000
387980000000
1FE300000000
0FC300000000
000600000000
000E00000000
000C3F007E00
001CFFC1FF80
0019E1E3C3C0
0039C0E381C0
0033807700E0
0063807700E0
00E3807700E0
00C3807700E0
01C3807700E0
0181C0E381C0
0380E1C1C380
03007F80FF00
06003F007E00
ENDCHAR
STARTCHAR 2039
ENCODING 8249
SWIDTH 257 0
DWIDTH 10 0
BBX 7 15 2 3
BITMAP
0C
0E
1C
1C
38
70
70
E0
70
70
38
1C
1C
0E
0C
ENDCHAR
STARTCHAR 203A
ENCODING 8250
SWIDTH 257 0
DWIDTH 10 0
BBX 7 15 1 3
BITMAP
60
E0
70
78
38
1C
1C
0E
1C
1C
38
78
70
E0
60
ENDCHAR
STARTCHAR 20AC
ENCODING 8364
SWIDTH 565 0
DWIDTH 22 0
BBX 18 28 1 0
BITMAP
007E00
01FF80
03FFC0
0780C0
0E0000
0E0000
1C0000
1C0000
180000
380000
FFFF00
FFFF00
380000
380000
380000
380000
FFFC00
FFFC00
380000
180000
1C0000
1C0000
0E0000
0E0000
0780C0
07FFC0
01FF80
007E00
ENDCHAR
STARTCHAR 2122
ENCODING 8482
SWIDTH 1002 0
DWIDTH 39 0
BBX 32 17 0 11
BITMAP
FFE7800F
FFE7800F
0E07C01F
0E07C01F
0E076037
0E076037
0E076067
0E073067
0E073067
0E0718C7
0E0718C7
0E071987
0E070D87
0E070D87
0E070707
0E070707
0E070607
ENDCHAR
STARTCHAR 2202
ENCODING 8706
SWIDTH 488 0
DWIDTH 19 0
BBX 16 28 1 -2
BITMAP
1F80
3FE0
3078
0018
001C
000E
000E
0006
0007
0007
0007
0007
0787
1FE7
3C3F
380F
7007
700F
E00F
E00F
E00E
E01E
E01C
E03C
6038
7078
38F0
0FC0
ENDCHAR
STARTCHAR 2206
ENCODING 8710
SWIDTH 617 0
DWIDTH 24 0
BBX 23 26 0 1
BITMAP
000800
001800
001800
003C00
003C00
007E00
007E00
005E00
00CF00
008F00
018780
010780
0307C0
0203C0
0603C0
0601E0
0C01E0
0C00F0
1800F0
1800F0
100078
300078
20003C
60003C
7FFFFC
FFFFFE
ENDCHAR
STARTCHAR 2211
ENCODING 8721
SWIDTH 591 0
DWIDTH 23 0
BBX 21 27 1 1
BITMAP
FFFFE0
7FFFE0
3C0060
1C0020
1E0020
0F0000
078000
03C000
03C000
01E000
00F000
007800
007800
003C00
001800
003000
007000
00E000
01C000
038000
070008
060008
0C0008
180010
3FFFF0
7FFFF0
FFFFF0
ENDCHAR
STARTCHAR 2219
ENCODING 8729
SWIDTH 282 0
DWIDTH 11 0
BBX 3 5 4 7
BITMAP
E0
E0
E0
E0
E0
ENDCHAR
STARTCHAR 221A
ENCODING 8730
SWIDTH 462 0
DWIDTH 18 0
BBX 17 30 0 -4
BITMAP
000180
000180
000380
000300
000300
000300
000300
000300
000700
000700
000600
000600
080600
3C0600
EC0E00
0E0E00
060C00
070C00
030C00
038C00
019C00
01DC00
00D800
00F800
007800
007800
003800
003800
001000
001000
ENDCHAR
STARTCHAR 2260
ENCODING 8800
SWIDTH 540 0
DWIDTH 21 0
BBX 20 21 0 -2
BITMAP
000200
000300
000700
000F00
000E00
001E00
FFFFF0
FFFFF0
007000
007000
00E000
00E000
01C000
01C000
FFFFF0
FFFFF0
070000
0E0000
0E0000
1C0000
0C0000
ENDCHAR
STARTCHAR 2264
ENCODING 8804
SWIDTH 540 0
DWIDTH 21 0
BBX 19 25 1 1
BITMAP
000060
0001E0
0007E0
001F80
00FE00
03F800
0FC000
3F0000
FC0000
F00000
F80000
7F0000
1FC000
07F000
00FC00
003F00
000FE0
0003E0
000060
000000
000000
000000
FFFFE0
FFFFE0
FFFFE0
ENDCHAR
STARTCHAR 2265
ENCODING 8805
SWIDTH 540 0
DWIDTH 21 0
BBX 19 25 1 1
BITMAP
C00000
F00000
FC0000
3F0000
0FE000
03F800
007E00
001F80
0007E0
0001E0
0003E0
001FC0
007F00
01FC00
07E000
1F8000
FE0000
F80000
C00000
000000
000000
000000
FFFFE0
FFFFE0
FFFFE0
ENDCHAR
STARTCHAR 25CA
ENCODING 9674
SWIDTH 462 0
DWIDTH 18 0
BBX 17 28 1 0
BITMAP
01C000
01C000
03E000
03E000
077000
077000
0E3800
0C3C00
1C1C00
380E00
380E00
700700
700700
E00380
E00380
700700
700700
380E00
380E00
1C1C00
1C1C00
0E3800
0E3800
077000
077000
03E000
01C000
01C000
ENDCHAR
ENDFONT
